<?xml version="1.0" encoding="utf-8"?>

<!DOCTYPE svg PUBLIC "-//W3C//DTD SVG 1.1//EN" "http://www.w3.org/Graphics/SVG/1.1/DTD/svg11.dtd">
<svg version="1.1" id="Layer_1" xmlns="http://www.w3.org/2000/svg" xmlns:xlink="http://www.w3.org/1999/xlink" x="0px" y="0px"
	 viewBox="0 0 2000 1171" enable-background="new 0 0 2000 1171" xml:space="preserve">
<path d="M739.61,37.43c25.38-13.36,55.66-16.3,83.4-9.5c28.57,7.32,57.09,14.81,85.68,22.03c-3,12.53-6.32,24.98-9.47,37.46
	C817.258,68.353,788.914,50.026,751.11,75.1c-31.814,20.446-47.841,66.131-24.34,105.1c-15.7,38.86-31.48,77.68-47.18,116.53
	c209.97-0.01,419.94,0.04,629.92-0.03c12.1-27.04,24.46-53.96,36.46-81.04c-46.13-20.4-91.44-42.65-135.56-67.1
	c-22.276-12.31-13.17-46.041,12.63-45.69c84.32-0.11,168.66,1.01,252.94,3.77c28.823,1.369,42.886,38.896,20.57,58.89
	c-4.885,4.659-0.766,2.186-109.5,51.62c-12.29,27.8-24.71,55.54-36.88,83.39c33.26,57.26,66.29,114.65,99.5,171.94
	c258.108-129.121,549.152,83.398,524.73,348.8c-5-0.45-10.01-0.78-15.01-1.14c-8.708,140.844-102.693,263.012-235.44,307.97
	c-206.97,70.868-428.318-66.6-456.93-284.1c-21.77,1.49-43.55,2.94-65.32,4.47c-3.77,34.66-25.24,66.77-55.95,83.3
	c-3.969,3.24-6.911-10.536,23.38,87.16c11.48,0.02,22.98-0.08,34.47,0.05c-0.03,12.93-0.01,25.86-0.01,38.8
	c-32.94,0.02-65.88,0.01-98.82,0.01c-0.01-12.96-0.01-25.91,0-38.86c7.93-0.02,15.87-0.01,23.8-0.01
	c-7.45-24.67-14.92-49.33-22.4-74c-87.873,9.256-146.293-82.417-109.51-155.19c-127.19-110.75-254.4-221.48-381.62-332.2
	c-6.97,17.44-13.89,34.9-20.82,52.35c157.175,121.041,187.323,344.471,71.83,502.83c-4.16-3.06-8.36-6.06-12.44-9.21
	c-173.426,236.566-542.866,166.643-617.57-115.6c-59.359-222.59,110.278-441.496,341.37-438.19c0.11-5.14,0.21-10.29,0.31-15.43
	c68.185,0.817,127.866,19.927,183.64,52.77c41.07-101.75,82.09-203.51,123.28-305.21C663.139,125.237,688.655,63.722,739.61,37.43
	 M664.16,335.26c-11.25,28.01-22.46,56.03-33.71,84.04c129.52,112.99,259.08,225.94,388.62,338.9c7.32-6.83,15.55-12.65,24.47-17.18
	c-8.38-27.53-16.87-55.03-25.22-82.57c-9.28-0.11-18.56-0.02-27.83-0.05c0.01-12.71-0.1-25.43,0.04-38.14
	c1.603-0.488-5.879-0.426,98.82-0.39c0.01,12.84,0,25.68,0,38.52c-10.13,0.02-20.25,0.01-30.37,0.01
	c7.28,23.61,14.61,47.21,21.92,70.82c11.85-1.28,23.88-0.9,35.58,1.45c58.6-131.78,117.1-263.6,175.66-395.4
	C1082.81,335.26,873.49,335.28,664.16,335.26 M1151.97,745.65c22.89,14.53,39.98,37.94,46.54,64.27c16.59-0.8,33.19-1.68,49.78-2.54
	c-2.752-132.047,64.387-249.278,167.02-315.78c-28.29-49.3-56.68-98.55-84.98-147.84C1270.78,477.68,1211.39,611.67,1151.97,745.65
	 M260.63,528.59c-207.926,86.861-243.263,368.162-62.39,503.19c81.52,61.309,189.52,74.576,282.59,37.12
	c201.75-80.466,245.938-347.312,85.25-488.63c-64.469,158.052-63.355,156.801-71.14,170.68
	c-25.55,44.982-74.516,69.963-123.82,67.33c-20.138-1.047-24.756-29.524-5.73-36.76c8.535-3.648,32.695,3.61,64.04-16.09
	c15.46-9.71,28.19-23.82,36-40.34c22.82-56.54,45.56-113.11,68.39-169.65C454.958,502.13,351.395,490.542,260.63,528.59
	 M1485.58,535.2c42.48,73.69,84.97,147.37,127.45,221.06c31.217,1.221,50.112,35.148,35.04,61.75
	c-12.877,24.079-48.019,30.651-69.05,5.47c-85.24,5.61-170.48,11.23-255.72,16.87c32.498,217.615,286.328,324.049,463.11,191.2
	c120.604-90.198,151.51-257.263,74.99-383.96C1783.673,518.138,1619.962,469.859,1485.58,535.2 M1320.66,802.14
	c83.9-5.61,167.79-11.25,251.69-16.87c1.98-4.03,3.94-8.07,5.89-12.11c-42.12-72.95-84.23-145.9-126.36-218.85
	C1366.409,610.193,1318.258,707.548,1320.66,802.14z"/>
</svg>
