<?xml version="1.0" encoding="UTF-8" standalone="no"?>
<!-- Created with Inkscape (http://www.inkscape.org/) -->

<svg
   xmlns:dc="http://purl.org/dc/elements/1.1/"
   xmlns:cc="http://creativecommons.org/ns#"
   xmlns:rdf="http://www.w3.org/1999/02/22-rdf-syntax-ns#"
   xmlns:svg="http://www.w3.org/2000/svg"
   xmlns="http://www.w3.org/2000/svg"
   xmlns:sodipodi="http://sodipodi.sourceforge.net/DTD/sodipodi-0.dtd"
   xmlns:inkscape="http://www.inkscape.org/namespaces/inkscape"
   width="35.230076mm"
   height="45.217354mm"
   viewBox="0 0 124.83098 160.21897"
   id="svg10357"
   version="1.1"
   inkscape:version="0.91 r13725"
   sodipodi:docname="determined man.svg">
  <defs
     id="defs10359" />
  <sodipodi:namedview
     id="base"
     pagecolor="#ffffff"
     bordercolor="#666666"
     borderopacity="1.0"
     inkscape:pageopacity="0.0"
     inkscape:pageshadow="2"
     inkscape:zoom="0.76065341"
     inkscape:cx="394.37232"
     inkscape:cy="-31.598008"
     inkscape:document-units="px"
     inkscape:current-layer="layer1"
     showgrid="false"
     fit-margin-top="0"
     fit-margin-left="0"
     fit-margin-right="0"
     fit-margin-bottom="0"
     inkscape:window-width="1366"
     inkscape:window-height="705"
     inkscape:window-x="-8"
     inkscape:window-y="-8"
     inkscape:window-maximized="1" />
  <metadata
     id="metadata10362">
    <rdf:RDF>
      <cc:Work
         rdf:about="">
        <dc:format>image/svg+xml</dc:format>
        <dc:type
           rdf:resource="http://purl.org/dc/dcmitype/StillImage" />
        <dc:title></dc:title>
      </cc:Work>
    </rdf:RDF>
  </metadata>
  <g
     inkscape:label="Layer 1"
     inkscape:groupmode="layer"
     id="layer1"
     transform="translate(-523.1423,-876.54929)">
    <path
       style="fill:#f19182;fill-opacity:1;fill-rule:evenodd;stroke:none;stroke-width:1px;stroke-linecap:butt;stroke-linejoin:miter;stroke-opacity:1"
       d="m 577.79272,1030.3417 -18.7339,-1.972 -7.88795,-4.93 -18.40523,-49.95705 1.64332,-13.14659 -6.24463,-17.09057 2.95798,-22.02054 -6.57329,-10.84594 55.21568,-18.40523 56.85902,26.29319 2.30065,38.78244 -13.47526,29.57983 -9.53128,17.41926 -15.11858,10.8459 -13.80392,9.86 z"
       id="path10930"
       inkscape:connector-curvature="0" />
    <path
       style="fill:#f6df68;fill-opacity:1;fill-rule:evenodd;stroke:none;stroke-width:1px;stroke-linecap:butt;stroke-linejoin:miter;stroke-opacity:1"
       d="m 533.42297,921.55361 2.95798,-6.24463 16.10458,-6.24463 4.92997,1.97199 11.83193,-6.90196 7.55929,1.97199 3.61531,4.60131 -3.61531,8.54528 0,3.94398 9.85995,0.32866 4.27264,-4.92997 4.92997,0.32867 11.83193,2.95798 -0.98599,12.48926 -0.986,7.55929 6.24464,9.20262 3.28664,-0.32867 11.17461,-9.53128 9.53128,-11.83193 -8.87395,-36.15313 -16.43324,-9.20261 -28.92251,-5.5873 -23.00653,3.61531 -16.43324,6.24463 -6.24463,6.24463 -10.18861,9.85995 -1.31466,8.21662 5.25864,7.88795 z"
       id="path10932"
       inkscape:connector-curvature="0" />
    <path
       style="fill:#000000"
       d="m 578.76562,876.55469 c -5.57334,-0.0957 -12.40875,1.08484 -16.50585,3.1582 -2.06855,1.0468 -5.86012,2.15549 -8.42579,2.46289 -5.42223,0.6496 -12.46798,3.97729 -15.33398,7.24219 -4.90974,5.5931 -6.3993,7.05888 -8.94531,8.80078 -7.02156,4.804 -8.42901,12.75929 -3.4668,19.60937 2.90871,4.01541 3.02588,4.5177 2,8.5918 -0.59934,2.3802 -1.08789,7.94162 -1.08789,12.35742 0,6.37766 0.50964,9.18324 2.48438,13.64844 2.15648,4.8763 2.43122,6.7029 2.0625,13.7793 -0.29586,5.6784 0.0255,9.37185 1.06054,12.15625 0.81783,2.2 2.41986,7.15 3.56055,11 3.39768,11.46757 6.89099,20.67567 9.95117,26.23637 1.58449,2.8791 2.88086,5.8938 2.88086,6.6992 0,3.3035 10.29804,8.5445 16.82031,8.5605 2.2782,0.01 5.35679,2.2086 5.14063,3.6797 -0.0603,0.4107 0.71164,1.0696 1.71484,1.4649 2.76708,1.0904 10.12369,0.9941 10.82617,-0.1426 0.34116,-0.552 1.6748,-0.7398 2.96485,-0.416 1.29007,0.3237 3.40072,0 4.68945,-0.711 1.28873,-0.7148 2.56875,-1.3435 2.84375,-1.3965 2.07262,-0.3988 8.19112,-3.6155 7.73828,-4.0683 -0.31235,-0.3124 -1.5072,-0.065 -2.6543,0.5488 -1.20499,0.6449 -2.08398,0.714 -2.08398,0.1641 0,-0.5235 0.5625,-1.1777 1.25,-1.4551 0.6875,-0.2774 0.26363,-0.541 -0.94141,-0.584 -2.46363,-0.089 -4.00064,1.5233 -2.0664,2.168 0.69093,0.2303 -0.13034,0.4199 -1.82617,0.4199 -1.95098,0 -3.08399,-0.5061 -3.08399,-1.377 0,-0.7574 0.61025,-1.1414 1.35547,-0.8554 0.74521,0.2859 3.40808,-1.0491 5.91797,-2.9649 2.5099,-1.9159 4.94855,-3.2451 5.41797,-2.955 0.46942,0.2901 1.21776,-0.088 1.66406,-0.8399 0.4463,-0.7517 2.29649,-1.654 4.11133,-2.0059 2.34205,-0.4534 3.09554,-0.3087 2.5957,0.5 -0.45518,0.7368 -0.25599,0.8634 0.5625,0.3575 0.72052,-0.4453 1.5972,-0.2457 2.03516,0.4629 0.53947,0.8729 2.42262,-0.3949 6.29492,-4.2364 7.63797,-7.5772 14.13884,-20.87047 14.18164,-28.99997 0.0166,-3.161 0.36875,-5.75 0.78125,-5.75 0.4125,-10e-4 0.75,-0.9726 0.75,-2.1582 0,-1.1856 1.02904,-3.5481 2.28711,-5.25 2.11992,-2.8678 5.19197,-8.8406 8.2793,-16.0957 0.70213,-1.65 1.32542,-5.84979 1.38671,-9.33399 0.0998,-5.6721 -0.11095,-6.39347 -2.01953,-6.89257 -1.9703,-0.5152 -2.09097,-1.04087 -1.59375,-6.94727 0.29587,-3.5146 0.0625,-9.18782 -0.51757,-12.60742 -0.58011,-3.4196 -1.16032,-7.11875 -1.28907,-8.21875 -0.12875,-1.1 -0.55996,-2.9 -0.95898,-4 -0.39901,-1.1 -1.28712,-3.575 -1.97461,-5.5 -3.37311,-9.4448 -11.64676,-17.07142 -16.75781,-15.44922 -1.47377,0.4678 -2.92134,-0.20199 -5.19336,-2.40039 -5.00335,-4.8414 -12.03314,-7.46337 -20.64844,-7.70117 -4.125,-0.1139 -9.43275,-0.92178 -11.79297,-1.79688 -1.63678,-0.60687 -3.90806,-0.91549 -6.44141,-0.95898 z m -0.24023,3.89062 c 7.38313,-0.0804 13.85465,2.39763 18.16406,7.26563 4.00689,4.5263 5.09258,3.76683 1.7168,-1.20117 l -2.54102,-3.73829 4.81641,0.56641 c 6.28776,0.7397 14.4057,4.88732 18.74219,9.57422 4.7695,5.1549 8.73747,14.9678 9.33789,23.0957 0.69091,9.3529 -0.626,23.85352 -2.16602,23.85352 -0.67272,0 -2.5149,1.35 -4.0957,3 -1.5808,1.65 -2.36653,3 -1.74609,3 0.62044,0 1.41948,-0.47374 1.77734,-1.05274 0.35787,-0.5786 1.1686,-0.87876 1.80078,-0.66797 0.63219,0.2107 1.74877,-0.21556 2.48047,-0.94726 1.53595,-1.536 5.1875,-1.79489 5.1875,-0.36719 0,0.5307 -0.9,1.44646 -2,2.03516 -1.1,0.5887 -2,0.80963 -2,0.49023 0,-1.2821 -5.08805,4.60969 -5.95898,6.90039 -1.44764,3.8076 1.03036,5.26259 3.71093,2.17969 1.14704,-1.3192 1.82209,-2.66227 1.5,-2.98437 -0.32209,-0.3221 0.20486,-0.58594 1.17188,-0.58594 1.55467,0 1.68705,0.72045 1.14648,6.21875 -0.56731,5.7703 -0.49744,6.0764 0.96094,4.25 1.52044,-1.9042 1.54944,-1.88745 0.91211,0.53125 -1.32207,5.0173 -4.42151,11.13339 -5.35156,10.55859 -0.525,-0.3244 -1.27976,-0.0639 -1.67774,0.58008 -0.45192,0.7312 -0.29135,0.90263 0.42969,0.45703 1.8924,-1.1696 1.30977,0.95526 -0.78125,2.84766 -1.06534,0.9641 -2.33986,1.50527 -2.83203,1.20117 -0.49217,-0.3042 -0.91807,1.78769 -0.94727,4.65039 -0.10884,10.672 -3.0869,19.45835 -7.36914,21.74995 -1.14268,0.6119 -3.70997,2.6533 -5.70508,4.5352 -1.99511,1.8818 -3.98254,3.4759 -4.41796,3.5449 -0.43541,0.069 -1.27872,0.181 -1.87305,0.25 -0.59434,0.069 -1.60684,0.8081 -2.25,1.6407 -1.34679,1.7433 -6.66797,5.3095 -6.66797,4.4687 0,-0.6234 -0.87921,0.056 -5.97461,4.6231 -1.91016,1.7116 -4.58159,3.5352 -5.9375,4.0507 -1.35591,0.5155 -6.43488,0.8558 -11.28711,0.7578 -11.99456,-0.2427 -14.31209,-1.5282 -19.01953,-10.5488 -4.08664,-7.8311 -9.15948,-23.89718 -8.11914,-25.71678 0.3614,-0.6321 0.28663,-0.81259 -0.16797,-0.40039 -0.45459,0.4123 -2.30913,-3.72391 -4.11914,-9.19141 -2.99893,-9.0588 -3.20481,-10.45474 -2.33789,-15.74804 0.52324,-3.1948 0.95403,-6.14805 0.95703,-6.56055 0.0102,-1.3156 3.71487,-0.80371 4.94922,0.68359 1.64095,1.9772 5.00274,1.52844 7.53711,-1.00586 2.85719,-2.8572 2.12307,-4.30704 -2.56445,-5.05664 C 543.76214,953.88802 542,953.13976 542,952.56836 c 0,-0.5713 -0.29493,-0.74612 -0.6543,-0.38672 -0.35938,0.3594 -2.27188,-0.34586 -4.25,-1.56836 -1.97813,-1.2226 -3.7082,-2.11613 -3.8457,-1.98633 -0.1375,0.1299 -0.76293,0.23438 -1.38867,0.23438 -0.82087,0 -0.97624,-3.54053 -0.56055,-12.7168 0.47721,-10.5341 0.87644,-12.9385 2.32813,-14 1.4248,-1.0418 1.46938,-1.2832 0.23632,-1.2832 -2.94851,0 -6.13351,-4.7144 -6.56445,-9.7168 -0.4732,-5.4928 1.76645,-10.01884 6.40039,-12.93164 1.53876,-0.9672 4.52223,-3.2739 6.62891,-5.125 4.36285,-3.8337 11.60339,-7.22656 15.42383,-7.22656 1.42375,0 5.36901,-1.11098 8.76757,-2.47071 4.81547,-1.92646 9.57403,-2.89708 14.00391,-2.94531 z m 1.76172,10.04883 c -5.01527,0.0418 -7.51036,0.70701 -12.96289,3.45898 -3.71408,1.87461 -6.92448,3.98412 -7.13281,4.6875 -0.20832,0.7034 1.57621,0.009 3.96484,-1.54296 8.06683,-5.242 16.63196,-6.80792 22.93945,-4.19532 3.90286,1.6166 6.18377,0.54384 2.4043,-1.13086 -1.65,-0.7311 -5.79666,-1.30534 -9.21289,-1.27734 z m -20.93945,0.36719 c -1.83809,0 -5.41984,4.65124 -4.8086,6.24414 0.32805,0.8549 0.12025,1.84783 -0.46094,2.20703 -0.66483,0.4109 -0.81271,0.0171 -0.39843,-1.0625 1.03334,-2.6928 -1.46091,-0.71156 -3.10352,2.46484 -1.1215,2.1688 -1.17827,3.46848 -0.27344,6.35938 l 1.13672,3.63281 2.77149,-5.06641 c 1.52428,-2.7874 3.92462,-6.57862 5.33203,-8.42382 1.90472,-2.4972 2.17687,-3.35547 1.06641,-3.35547 -0.82053,0 -1.76946,0.45 -2.10938,1 -0.33992,0.55 -1.12096,1 -1.73438,1 -0.61341,0 -0.0574,-1.125 1.23438,-2.5 1.29173,-1.375 1.89766,-2.5 1.34766,-2.5 z m 53.18945,2.53711 c -0.13815,0.003 -0.24479,0.1001 -0.3125,0.30078 -0.24821,0.7356 0.0502,1.83927 0.66211,2.45117 2.00507,2.0051 1.26521,9.90317 -1.35742,14.49023 -1.34521,2.35291 -2.20466,4.90633 -1.91016,5.67383 0.61527,1.6033 -2.32626,3.47671 -5.05469,3.22071 -1.01795,-0.0955 -2.04836,0.39022 -2.29101,1.07812 -0.29161,0.8266 0.18065,1.0476 1.39258,0.6543 1.53085,-0.4967 1.58634,-0.4137 0.33398,0.5 -1.3105,0.956 -1.31676,1.2128 -0.041,2.0332 1.24699,0.8018 1.17398,1.2764 -0.5,3.25 -1.95319,2.3027 -1.95181,2.30509 0.041,0.71289 1.1,-0.8788 2.675,-1.9771 3.5,-2.4414 1.20855,-0.68 1.27287,-0.56405 0.33594,0.59765 -0.96586,1.1977 -0.59293,1.4616 2.19531,1.5586 2.00616,0.0698 3.5674,-0.4332 3.88086,-1.25 0.28848,-0.7518 1.26101,-1.36719 2.16211,-1.36719 1.06345,0 1.43187,-0.53891 1.04883,-1.53711 -0.34559,-0.9005 0.0693,-1.79064 1.00195,-2.14844 1.43352,-0.5501 1.42465,-0.70513 -0.0898,-1.55273 -1.57204,-0.8797 -1.5677,-1.06747 0.0469,-2.85157 1.00727,-1.113 1.24552,-1.91015 0.57227,-1.91015 -0.63525,0 -1.10221,-0.3375 -1.03711,-0.75 0.49735,-3.1499 -0.33371,-3.41515 -2.92188,-0.93555 -3.95111,3.7854 -4.6547,3.33594 -1.7207,-1.09766 3.45152,-5.21559 4.26165,-11.89347 1.97656,-16.29687 -0.79848,-1.539 -1.49963,-2.39135 -1.91406,-2.38281 z m -36.71484,6.46289 c -0.55,0 0.17569,1.39892 1.61328,3.10742 2.16022,2.5672 2.52833,3.81809 2.11914,7.21289 -0.27231,2.2592 -1.40899,5.34352 -2.52539,6.85352 -2.3239,3.1433 -2.57747,4.2233 -0.7793,3.3125 0.6875,-0.3483 0.43486,0.0308 -0.56055,0.84375 -1.99317,1.6279 -0.81878,3.0401 1.71875,2.0664 0.87463,-0.3357 1.5918,-0.11075 1.5918,0.49805 0,0.6089 0.27162,1.10547 0.60547,1.10547 0.33389,0 0.34936,-0.67415 0.0332,-1.49805 -0.35107,-0.9149 0.37859,-2.12301 1.875,-3.10351 3.20297,-2.0987 6.50472,-7.50903 6.41602,-10.51563 -0.0656,-2.2239 -0.12731,-2.25001 -0.92969,-0.38281 -0.82859,1.9282 -0.86189,1.92292 -0.92969,-0.18945 C 585.96848,905.99766 584,905.21962 584,908.35352 c 0,3.1052 -2.17555,7.59703 -4.64062,9.58203 -1.41271,1.1376 -1.32511,0.69249 0.43359,-2.19141 2.94552,-4.8301 2.82072,-8.99749 -0.38281,-12.80469 -1.4239,-1.6922 -3.03789,-3.07812 -3.58789,-3.07812 z m -22.98047,1.05664 c 0.13624,0.0475 -0.12033,0.57762 -0.71485,1.69336 -1.23991,2.327 -2.12695,2.90055 -2.12695,1.37305 0,-0.48262 0.74706,-1.49511 1.66211,-2.25 0.56572,-0.46667 0.92639,-0.74633 1.09766,-0.80665 0.0357,-0.0126 0.0626,-0.0164 0.082,-0.01 z m 41.48047,0.39258 c -0.17512,0.0362 -0.22906,0.82062 -0.25977,2.48633 -0.0349,1.88877 -0.97258,5.31162 -2.08398,7.60742 -2.24107,4.6295 -9.30105,11.72833 -10.58985,10.64843 -0.45349,-0.3799 -0.2481,0.0642 0.45508,0.98633 1.72901,2.2673 5.85699,0.8082 9.81641,-3.4707 4.94463,-5.3435 5.96043,-10.53938 3.33593,-17.04688 -0.32844,-0.81436 -0.53761,-1.23907 -0.67382,-1.21093 z m -24.87891,0.0449 c -3.30264,-0.0457 -9.58271,2.19008 -10.2832,3.77539 -0.1866,0.4223 -0.8616,1.3223 -1.5,2 -0.63839,0.6776 -1.19538,2.23815 -1.23828,3.46875 l -0.0781,2.23828 3.32813,-2.53906 c 1.83042,-1.3962 3.33379,-2.17878 3.34179,-1.73828 0.008,0.4405 0.40024,0.19693 0.86914,-0.54297 1.2855,-2.0284 10.6928,-2.43612 12.58399,-0.54492 1.24708,1.247 1.5332,1.27246 1.5332,0.13476 0,-2.2875 -4.45289,-5.77169 -7.93945,-6.21289 -0.19117,-0.0242 -0.39702,-0.036 -0.61719,-0.0391 z m 35.44336,1.17773 c -0.25544,-0.002 -0.72068,1.43786 -1.49414,4.31641 -1.39575,5.1945 -5.84397,11.47068 -7.4336,10.48828 -0.40352,-0.2494 -1.3102,0.2419 -2.01562,1.0918 -1.05674,1.273 -1.03265,1.49078 0.13672,1.23828 0.92418,-0.1995 1.30076,0.37332 1.08008,1.64062 -0.28359,1.6287 -0.093,1.74252 1.16406,0.69922 1.21056,-1.0047 1.76079,-0.96507 2.83789,0.20313 1.74393,1.8914 2.5045,1.16038 0.85742,-0.82422 -1.04256,-1.2562 -0.98801,-1.52344 0.31445,-1.52344 2.10979,0 6.37344,-7.5102 7.09571,-12.5 l 0.57812,-4 -1.47851,3.5 -1.48047,3.5 0.0762,-3.5 c 0.063,-2.8839 0.0172,-4.32816 -0.23828,-4.33008 z m -63.89453,5.48242 c -1.52506,0.0625 -2.94764,0.39447 -3.51953,0.86915 -0.76253,0.6328 -1.88541,0.84029 -2.4961,0.46289 -1.64171,-1.0147 -3.72062,2.41248 -3.17968,5.24218 0.35753,1.8703 0.69496,2.13684 1.4121,1.11524 0.78222,-1.1147 1.03288,-1.11724 1.47657,-0.0117 0.38751,0.9655 1.326,0.57277 3.41406,-1.42774 1.58353,-1.5171 3.17471,-2.462 3.53711,-2.0996 0.3624,0.3624 1.53537,-0.34477 2.60547,-1.57227 l 1.94531,-2.23242 -3.66406,-0.31445 c -0.50378,-0.0432 -1.02289,-0.0521 -1.53125,-0.0313 z m 84.75195,10.49805 c -0.22151,0.009 -0.6079,0.6301 -1.14453,1.84766 -0.7272,1.65 -2.57139,4.2375 -4.09766,5.75 -2.89853,2.8724 -2.70818,3.4658 0.55274,1.7207 2.21914,-1.1877 4.96355,-6.03642 4.90625,-8.66992 -0.01,-0.43826 -0.0839,-0.65396 -0.2168,-0.64844 z m -15.69726,11.94531 c -1.50618,0.0508 -2.26785,0.28049 -1.76563,0.59961 0.78856,0.501 0.4464,0.77907 -0.97266,0.78907 -3.25459,0.0227 -3.94985,2.07817 -1.40039,4.14257 1.55627,1.2602 2.73536,1.53094 3.91016,0.89844 0.92485,-0.4979 2.85711,-1.15117 4.29492,-1.45117 1.87794,-0.3917 2.582,-1.14141 2.5,-2.66211 -0.0977,-1.8121 -0.79403,-2.14459 -4.83203,-2.30469 -0.64866,-0.0257 -1.23232,-0.0286 -1.73437,-0.0117 z m -0.48829,9.77542 c -6.59575,0.0882 -9.67581,0.51145 -10.01171,1.37695 -0.26683,0.6875 0.19062,1.25 1.01562,1.25 0.825,0 1.75764,0.675 2.07422,1.5 0.73065,1.904 3.45796,1.81883 10.2832,-0.32227 8.63593,-2.7092 7.53942,-3.95038 -3.36133,-3.80468 z m -52.25586,3.13671 c -0.19001,0.0282 -0.43035,0.18059 -0.73046,0.42969 -1.46901,1.2192 -0.91972,4.43175 1.67773,9.81055 0.5976,1.2375 1.51662,2.25 2.04102,2.25 0.52499,0 0.45309,-0.6029 -0.16016,-1.3418 -0.61257,-0.7381 -0.81892,-1.6381 -0.45703,-2 0.36189,-0.3619 0.13385,-0.6582 -0.50781,-0.6582 -0.72063,0 -1.16602,-1.7659 -1.16602,-4.6211 0,-2.9172 -0.12724,-3.95374 -0.69727,-3.86914 z m 58.80079,3.34375 c -0.0611,-0.009 -0.13094,-0.007 -0.20899,0.004 -0.37464,0.0537 -0.95679,0.33573 -1.85156,0.80273 -1.39928,0.7303 -3.05885,1.33399 -3.6875,1.33399 -0.62866,0.003 -1.41073,0.70509 -1.73828,1.55859 -0.34149,0.89 -0.17428,1.29181 0.39258,0.94141 0.5437,-0.336 0.99023,-0.13524 0.99023,0.44726 0,1.3093 2.97912,1.35728 5,0.0801 0.825,-0.5214 1.51867,-2.01456 1.54297,-3.31836 0.0226,-1.2159 -0.012,-1.78621 -0.43945,-1.84961 z m -26.2129,1.68555 c -1.76599,-0.0407 -3.19796,0.14748 -3.5039,0.64258 -0.27837,0.4504 -1.54885,0.81836 -2.82422,0.81836 -1.27538,0 -4.05791,0.72713 -6.18359,1.61523 -2.65627,1.1097 -5.48962,1.44858 -9.06055,1.08008 -4.28243,-0.442 -5.09806,-0.28042 -4.63672,0.92188 0.73498,1.9153 7.05002,4.59882 10.70117,4.54882 1.58647,-0.0219 3.53195,0.60804 4.32227,1.39844 1.86934,1.8695 5.71561,1.83916 7.28906,-0.0566 0.91131,-1.0981 2.33152,-1.32658 5.37109,-0.86328 l 4.13477,0.63086 -2.33203,-2.07422 c -1.28204,-1.141 -2.97503,-1.82924 -3.76172,-1.52734 -1.03719,0.398 -1.24207,0.0608 -0.74805,-1.22657 0.50324,-1.3114 0.3338,-1.55977 -0.64453,-0.95507 -0.80892,0.4999 -1.08305,0.428 -0.70508,-0.1836 0.78759,-1.2743 6.69141,-1.48623 6.69141,-0.24023 0,0.5132 0.72875,0.93164 1.62109,0.93164 1.29917,0 1.38525,0.2877 0.42774,1.4414 -1.02723,1.2378 -0.77243,1.28109 1.81445,0.30469 1.65622,-0.6252 2.75667,-1.54893 2.44531,-2.05273 -0.31135,-0.5038 0.0545,-1.35056 0.8125,-1.88086 1.13043,-0.791 1.10931,-0.88298 -0.12109,-0.51758 -0.825,0.2452 -2.24893,-0.20425 -3.16211,-0.99805 -1.13303,-0.985 -5.00393,-1.69001 -7.94727,-1.75781 z m 42.16407,0.22852 c 0.4704,0.0803 0.68688,1.14424 0.76758,3.49414 0.0801,2.3311 -0.31687,4.91328 -0.88086,5.73828 -0.77195,1.1292 -0.91652,0.71638 -0.58399,-1.66992 0.26381,-1.8932 -0.19017,-4.1085 -1.12695,-5.5 -0.86271,-1.2815 -1.1967,-1.99559 -0.74219,-1.58789 0.45452,0.4078 1.35864,0.30041 2.00781,-0.23829 0.21815,-0.181 0.40181,-0.26312 0.5586,-0.23632 z m -98.4375,4.39453 c 0.40652,-0.0728 1.51031,0.55724 3.60742,1.83594 1.80079,1.09789 2.74798,2 2.10547,2 -0.64252,0.002 -1.7983,0.24481 -2.57031,0.54101 -0.8522,0.3271 -1.8583,-0.4587 -2.56055,-2 -0.69691,-1.5296 -0.98854,-2.30405 -0.58203,-2.37695 z m 93.35156,2.83789 c -0.95615,0 -2.34614,3.11672 -2.0957,4.69922 0.10426,0.6587 -0.6718,1.6573 -1.72461,2.2207 -2.16475,1.1586 -3.45086,3.78411 -2.56055,5.22461 1.65053,2.6707 6.18221,-2.96893 6.74609,-8.39453 0.21435,-2.0625 0.0501,-3.75 -0.36523,-3.75 z m -73.51563,1.41797 c -0.57186,0.0785 -0.45202,0.88083 0.54493,2.08203 0.9319,1.1228 1.1018,3.51617 0.61718,8.73047 -0.36724,3.9514 -0.9945,7.43001 -1.39257,7.72851 -0.39807,0.2985 -0.87426,3.05837 -1.0586,6.13477 -0.25133,4.1942 0.078,6.00579 1.31446,7.24219 0.90691,0.9069 1.42536,2.01132 1.15234,2.45312 -0.27302,0.4417 0.71009,0.78281 2.18555,0.75781 2.21098,-0.0375 2.7006,-0.52069 2.7832,-2.74609 0.0551,-1.485 -0.39488,-2.61 -1,-2.5 -0.60513,0.1101 -0.95091,-0.47578 -0.76758,-1.30078 0.18334,-0.8252 0.0123,-1.17826 -0.38086,-0.78516 -1.37332,1.3733 -4.29184,-1.10995 -3.74805,-3.18945 0.28792,-1.101 0.8715,-1.78634 1.29688,-1.52344 0.42537,0.2629 0.75302,-0.0801 0.72852,-0.76172 -0.16,-4.4426 0.39362,-8.78103 1.0664,-8.36523 0.43719,0.2702 0.48817,-2.45755 0.11524,-6.06055 -0.38647,-3.7339 -1.2531,-6.90761 -2.01563,-7.3789 -0.4742,-0.2931 -0.86262,-0.45446 -1.1543,-0.50586 -0.10938,-0.0193 -0.20541,-0.0229 -0.28711,-0.0117 z m 61.92383,0.52734 c -0.575,0.0238 -1.24984,0.75449 -1.24609,1.80469 0.0263,6.822 -3.677,17.37188 -5.46875,15.58008 -0.3647,-0.3646 -0.66211,0.13031 -0.66211,1.09961 0,0.9692 -0.97591,3.13254 -2.16797,4.80664 -2.12136,2.9791 -3.08088,8.78047 -1.94531,11.76367 0.32982,0.8665 0.86209,-0.1894 1.25976,-2.5 1.18151,-6.865 1.58524,-8.0076 2.73633,-7.75 0.61444,0.1375 1.00823,-0.0875 0.875,-0.5 -0.50018,-1.5487 3.09038,-5.46083 4.31641,-4.70313 0.72481,0.448 0.97976,0.35038 0.61719,-0.23632 -0.33961,-0.5495 0.19829,-3.2063 1.19726,-5.9043 1.51108,-4.081 1.96554,-8.69585 1.2461,-12.65625 -0.10515,-0.5789 -0.41282,-0.81889 -0.75782,-0.80469 z m -45.65625,0.49805 c -0.26802,-0.0518 -0.69041,0.11801 -1.27539,0.60351 -0.85502,0.7096 -1.99583,2.1133 -2.53515,3.1211 -1.22024,2.28 -0.15608,2.36403 2.25976,0.17773 1.76676,-1.5988 2.35484,-3.74704 1.55078,-3.90234 z m -32.22265,4.01758 c -0.70884,-0.0469 -0.44556,0.77151 0.56836,2.66601 1.22735,2.2934 5.01756,2.20935 5.74218,-0.12695 0.25587,-0.8249 0.12121,-1.17956 -0.29882,-0.78906 -0.42003,0.3906 -2.05646,0.0418 -3.63672,-0.77539 -1.17369,-0.607 -1.94969,-0.94651 -2.375,-0.97461 z m 41.10547,0.32617 c -1.70349,-0.0609 -2.17579,0.29108 -2.17579,1.23828 0,1.1728 1.01691,1.55548 4.03516,1.52148 5.45522,-0.0622 5.66006,-1.91816 0.2832,-2.56836 -0.86931,-0.1051 -1.57474,-0.1711 -2.14257,-0.1914 z m -29.02344,0.21289 c -1.23017,0 -3.58008,1.32217 -3.58008,2.01367 0,0.4396 0.9,0.56504 2,0.27734 1.66529,-0.4354 2.94456,-2.29101 1.58008,-2.29101 z m 14.84375,16.03125 c -0.14221,0.0218 -0.24575,0.0971 -0.29688,0.23047 -0.20454,0.534 0.24546,1.36194 1,1.83984 2.45113,1.5527 3.27197,0.94832 1.29688,-0.95508 -0.79406,-0.7652 -1.5734,-1.18073 -2,-1.11523 z m 8.60742,4.79492 c -0.0515,-0.007 -0.10702,-0.004 -0.16602,0.01 -0.15734,0.036 -0.34143,0.14571 -0.55664,0.32421 -0.65481,0.5431 -0.94372,1.62927 -0.64257,2.41407 0.87461,2.2792 2.13409,1.64892 1.97656,-0.98828 -0.0684,-1.1457 -0.25057,-1.70937 -0.61133,-1.75977 z m -5.375,1.60547 c -1.15192,-0.0624 -3.24294,0.34023 -5.08398,1.11133 -1.90251,0.7969 -1.90251,0.8172 0,1.5625 2.80528,1.0989 6.21572,1.04663 6.92773,-0.10547 0.33992,-0.55 0.11492,-1 -0.5,-1 -0.61487,0 -0.85841,-0.4201 -0.54102,-0.9336 0.24285,-0.3929 -0.11158,-0.59736 -0.80273,-0.63476 z m 9.87305,2.17187 c -0.88709,0.03 -1.63758,0.1835 -1.97461,0.5 -1.21089,1.1375 2.5038,4.70969 4.28125,4.11719 0.71197,-0.2373 1.54289,0.51593 1.8457,1.67383 0.30281,1.158 0.97388,2.10547 1.49219,2.10547 0.51831,0 0.66609,0.45 0.32617,1 -0.33992,0.55 -0.18686,1 0.3418,1 1.33287,0 3.1444,5.56867 3.2207,9.90037 0.0557,3.1637 0.17221,3.3264 0.9668,1.3496 0.49742,-1.2375 1.19781,-2.25 1.55468,-2.25 0.35691,0 0.39386,1.0125 0.082,2.25 -0.524,2.0797 -0.46541,2.1157 0.77734,0.4551 1.37942,-1.8431 0.97949,-6.083 -0.48828,-5.1758 -0.44947,0.2777 -1.09985,0.047 -1.44531,-0.5117 -0.34546,-0.559 -0.11979,-1.0176 0.50195,-1.0176 0.63658,0 0.41924,-0.7116 -0.49805,-1.6289 -0.89592,-0.896 -1.39287,-2.24598 -1.10351,-2.99998 0.28937,-0.7541 0.17422,-1.37109 -0.25586,-1.37109 -0.43007,0 -1.39899,-1.575 -2.1543,-3.5 -0.75531,-1.925 -1.76629,-3.5 -2.24609,-3.5 -0.47981,0 -0.62607,-0.39832 -0.32422,-0.88672 0.46097,-0.7459 -1.87154,-1.3938 -3.97852,-1.5 -0.31605,-0.0159 -0.62617,-0.0195 -0.92187,-0.01 z m -26.92969,2.01172 c -0.25044,0.0273 -0.59763,0.24026 -1.05078,0.69336 -0.79785,0.7978 -1.72983,2.74337 -2.07031,4.32227 l -0.61914,2.86914 2.07031,-2.35938 c 2.00512,-2.2872 2.75513,-5.64389 1.66992,-5.52539 z m 75.97266,4.74024 c 0.0956,0.0204 0.18267,0.0674 0.25781,0.14258 0.21343,0.21339 -0.59161,1.76371 -1.78906,3.44531 -1.29035,1.8121 -1.69388,3.05661 -0.98829,3.05661 0.89661,0 0.88473,0.3704 -0.0527,1.5 -0.68469,0.825 -2.3154,1.5 -3.62305,1.5 -1.30766,0 -2.37695,0.4361 -2.37695,0.9688 0,0.5328 0.70006,0.6998 1.55664,0.3711 1.07892,-0.414 0.77168,0.5611 -1,3.1718 -1.40658,2.0727 -2.55664,4.1558 -2.55664,4.629 0,0.4733 -0.3375,0.7698 -0.75,0.6601 -0.9168,-0.244 -7.3428,3.7034 -6.99805,4.2988 0.13553,0.2341 -0.15163,-0.063 -0.63867,-0.6621 -0.61019,-0.7505 -1.66658,-0.3668 -3.39648,1.2364 -1.38077,1.2796 -2.98976,2.3261 -3.57618,2.3261 -0.58641,0 0.49227,-1.3316 2.39649,-2.9609 1.90423,-1.6293 3.98403,-2.7841 4.62109,-2.5664 0.63707,0.2177 1.43167,-0.7007 1.76758,-2.0391 0.47614,-1.8971 1.26786,-2.4336 3.5918,-2.4336 1.98307,0 2.98242,-0.5021 2.98242,-1.5 0,-0.825 0.47934,-1.5 1.06641,-1.5 0.58703,0 0.82293,-0.7875 0.52343,-1.75 -0.60511,-1.9446 0.59174,-4.449 2,-4.1836 2.03754,0.3841 3.49064,-0.1241 2.9336,-1.0254 -0.90503,-1.46426 2.6149,-6.9909 4.04883,-6.6855 z m -52.88282,5.24804 c -1.56521,-0.0211 -3.58491,-0.005 -6.18554,0.0274 C 554.8343,999.65259 549,1000.4287 549,1001.9531 c 0,0.6294 1.38973,0.7065 3.75,0.209 4.33146,-0.9134 19.45278,-0.8515 23.5,0.096 2.2099,0.5171 2.75,0.2935 2.75,-1.1348 0,-1.20655 -0.61492,-1.59476 -5.31055,-1.65816 z m -13.93554,4.42186 c -0.0889,-0.01 -0.22094,0.2363 -0.41797,0.7246 -0.27741,0.6875 -1.14076,1.25 -1.91992,1.25 -2.32009,0 -1.60494,2.8253 0.83398,3.2949 6.40851,1.2346 14.75,0.089 14.75,-2.0253 0,-1.412 -6.82383,-3.0472 -7.96289,-1.9082 -0.71824,0.7183 -1.03711,0.6587 -1.03711,-0.1954 0,-0.9253 -0.50175,-0.9678 -2,-0.166 -1.51469,0.8106 -2.02028,0.7585 -2.08008,-0.2148 -0.0308,-0.502 -0.0771,-0.7544 -0.16601,-0.7598 z m 62.8789,2.4082 c 0.17679,-0.014 0.44722,0.044 0.80469,0.1817 1.36245,0.5229 1.34006,0.8515 -0.19727,2.8027 -0.95761,1.2155 -3.42757,3.69 -5.48828,5.498 -2.06072,1.808 -3.49707,3.6911 -3.1914,4.1856 0.60352,0.9766 0.54789,0.9862 -1.31055,0.2363 -1.90872,-0.7702 -1.48808,-3.3379 0.54688,-3.3379 2.29477,0 9.65029,-7.4651 8.76562,-8.8965 -0.25744,-0.4165 -0.22434,-0.6461 0.0703,-0.6699 z m -26.21289,15.7793 c 0.0781,0 0.13245,0.01 0.16211,0.039 0.26323,0.2632 -0.54612,1.1344 -1.80078,1.9375 -2.55285,1.6341 -5.78125,2.9529 -5.78125,2.3613 0,-0.697 6.24791,-4.2833 7.41992,-4.3379 z"
       id="path10916"
       inkscape:connector-curvature="0"
       sodipodi:nodetypes="sssssssscssscscccccccccsscsssccscccccsccsssscssssscccsssscccssssscccsssssssscscccccsccsscscscsscsscsccssccsscssccscsccccsccssssccccsssscsscccccccccccccscsccccscssccscsscccsssssscsssssccscccccsccssccsccccsscscccscsccsssscccccccccsccssccccccsccccccscssccssssssscsssscssccsccccsccccsccccccccccsccsscccccccccssscccccccscscscsscscsscccccccsscssccccccsccsscccscccscccccccccsscsssscscccccccccccsscscccccscssssccscsccssscccccccccccsscsscsscccssssssssscccccsccsccsscscsccccccsccsccccsscccccscsscccccsscc" />
  </g>
</svg>
