<?xml version="1.0" encoding="utf-8"?>
<!-- Generator: Adobe Illustrator 19.0.0, SVG Export Plug-In . SVG Version: 6.00 Build 0)  -->
<svg version="1.1" id="Calque_1" xmlns="http://www.w3.org/2000/svg" xmlns:xlink="http://www.w3.org/1999/xlink" x="0px" y="0px"
	 viewBox="0 0 283.5 226.8" style="enable-background:new 0 0 283.5 226.8;" xml:space="preserve">
<style type="text/css">
	.st0{fill:#010202;}
</style>
<g id="XMLID_1_">
	<path id="XMLID_10_" class="st0" d="M68.8,99.7c22.3-11.4,34.4-21.9,40.9-30.1c1.3,1,2.5,1.6,3.7,1.8c7.8,1.4,25.7,12.1,54.5,11.9
		c28.8-0.1,35-1.8,38-1.3s2.5-0.2,3.2-3.2c0.6-3,0.6-21.2-4.7-35.2s-18.6-29.7-14.8-32.2c3.8-2.5,14.5,10.8,23.5,23.3s14,35,13,42.8
		s-1.5,28,2.8,30.8c4.4,2.8,9.9,8.8,10.2,12.3s1,26.9,2.8,30.7c1.9,3.8,2.9,11.8,6.2,11.8s4.1,6.4,4.8,11.2s5.4,17.4,7.7,23.6
		c2.3,6.2,1.8,15.7,0.8,15.7s-6.9,1.3-9.8,1.8c-2.9,0.5-9.4,0-9.2-2.8s5.2-7.1,6.2-8.3c1-1.1,0-13.3-1-15.6s-4.3-9-10.5-12.3
		s-26.3-19-30-23.8c-3.6-4.8-4.5-15.6-21.3-12.8s-40.8,10-48.9,9.8c-8.1-0.1-18.3,3.2-21.6,2.7s-4.6,0-5.3,7.2
		c-0.6,7.1-3.1,39.6-4.3,42.3c-1.1,2.7-3.1,14.7-4.8,14.7s-18.5-0.2-17-2.2s0.9-6.9,4.2-8.2c3.3-1.4,4.3-2.2,4.3-4.2
		s-2.2-41-2.5-45.8c-0.3-4.9-1.8-14-5-17.7s-6.5-8-9.5-13c-3-5-3.8-7-3.3-12.7C72.3,109.6,70.6,104.3,68.8,99.7z"/>
	<path id="XMLID_9_" class="st0" d="M22.3,53.7c1.2,8.2,4.8,9.4,10.6,12.5c5.9,3.1,19.1,0.6,21.2,2.7c2.1,2.1,9.6,20,11,22.7
		C87.2,80.2,98,70.1,103.3,63.1c-4.8-6-9-13.3-10.7-15.2c-3.1-4-7-7.6-11.8-12.3c-1.1-1.1-8.3-8.2-11-10.9c-0.7-0.7-1.7-2-2.6-3.5
		c-3.6-5.7-12.7-18.4-13.4-4.5c-0.3,5.3-0.9,9.7-1.7,12.9c-0.2,0.7-0.7,1.3-1.3,1.6c-4.9,2.5-9.7,10.4-10.5,11.6s-11.4,2-15.5,3
		S21.1,45.3,22.3,53.7z"/>
</g>
</svg>
