<?xml version="1.0" encoding="UTF-8"?><!DOCTYPE svg PUBLIC "-//W3C//DTD SVG 1.1//EN" "http://www.w3.org/Graphics/SVG/1.1/DTD/svg11.dtd"><svg xmlns="http://www.w3.org/2000/svg" xmlns:xlink="http://www.w3.org/1999/xlink"><defs><radialGradient id="1267612374-a" gradientUnits="userSpaceOnUse" cy="990.86" cx="154.5" gradientTransform="matrix(1 0 0 .86667 0 132.11)" r="7.5"><stop offset="0" stop-color="#fff"/><stop offset="1" stop-color="#fff" stop-opacity="0"/></radialGradient><radialGradient id="1267612374-c" xlink:href="#1267612374-a" gradientUnits="userSpaceOnUse" cy="990.86" cx="154.5" gradientTransform="matrix(1 0 0 .86667 0 132.11)" r="7.5"/><radialGradient id="grapes red-a" gradientUnits="userSpaceOnUse" cy="51.5" cx="-88.5" r="3.5"><stop offset="0"/><stop offset="1" stop-opacity="0"/></radialGradient><radialGradient id="grapes red-b" gradientUnits="userSpaceOnUse" cy="140" cx="-185" gradientTransform="matrix(1 0 0 .71429 0 40)" r="7"><stop offset="0"/><stop offset="1" stop-opacity="0"/></radialGradient><radialGradient id="grapes red-c" gradientUnits="userSpaceOnUse" cy="94" cx="-191.5" gradientTransform="matrix(1 0 0 .54545 0 42.727)" r="5.5"><stop offset="0"/><stop offset="1" stop-opacity="0"/></radialGradient><linearGradient id="sofa-tandem-g" y2="52.25" xlink:href="#sofa-tandem-b" gradientUnits="userSpaceOnUse" x2="223.03" y1="52.25" x1="45.085"/><linearGradient id="sofa-tandem-c"><stop offset="0" stop-color="#f2780b"/><stop offset="1" stop-color="#f2780b" stop-opacity="0"/></linearGradient><linearGradient id="sofa-tandem-a"><stop offset="0"/><stop offset="1" stop-opacity="0"/></linearGradient><linearGradient id="sofa-tandem-e" y2="18.495" xlink:href="#sofa-tandem-c" gradientUnits="userSpaceOnUse" x2="80.292" y1="-29.583" x1="56.244"/><linearGradient id="sofa-tandem-n" y2="57.993" xlink:href="#sofa-tandem-c" gradientUnits="userSpaceOnUse" x2="237.5" y1="13.007" x1="237.5"/><linearGradient id="sofa-tandem-l" y2="56.605" xlink:href="#sofa-tandem-c" gradientUnits="userSpaceOnUse" x2="293.52" y1="17.105" x1="268.39"/><linearGradient id="sofa-tandem-k" y2="-28.392" xlink:href="#sofa-tandem-a" gradientUnits="userSpaceOnUse" x2="251.45" y1="-46.892" x1="242.19"/><linearGradient id="sofa-tandem-b"><stop offset="0" stop-color="#db8d07"/><stop offset="1" stop-color="#f8af08"/></linearGradient><linearGradient id="sofa-tandem-h" y2="14.626" xlink:href="#sofa-tandem-b" gradientUnits="userSpaceOnUse" x2="162.55" y1="14.626" x1="43.71"/><linearGradient id="sofa-tandem-i" y2="30.713" xlink:href="#sofa-tandem-b" gradientUnits="userSpaceOnUse" x2="180.2" y1="30.713" x1="79.065"/><linearGradient id="sofa-tandem-o" y2="75.657" gradientUnits="userSpaceOnUse" x2="37" gradientTransform="translate(15.636 -64.302)" y1="65.907" x1="37"><stop offset="0" stop-color="#2e3436"/><stop offset="1" stop-color="#2e3436" stop-opacity="0"/></linearGradient><radialGradient id="sofa-tandem-j" xlink:href="#sofa-tandem-a" gradientUnits="userSpaceOnUse" cy="-.665" cx="41.185" gradientTransform="matrix(1 1.6416 -1.8934 1.1534 -1.259 -73.725)" r="18.256"/><radialGradient id="sofa-tandem-m" xlink:href="#sofa-tandem-a" gradientUnits="userSpaceOnUse" cy="30.476" cx="259.94" gradientTransform="matrix(0 1.5451 -3.5936 0 369.45 -385.6)" r="14.239"/><filter id="sofa-tandem-f" height="1.194" width="1.314" color-interpolation-filters="sRGB" y="-.097" x="-.157"><feGaussianBlur stdDeviation=".359"/></filter><filter id="sofa-tandem-d" height="1.238" width="1.069" y="-.119" x="-.034"><feGaussianBlur stdDeviation="3.822"/></filter></defs><symbol id="1267612374" viewBox="0 0 600 936.38"><g transform="translate(-45.002 -19.02)"><use xlink:href="#1267612374-b" transform="translate(88.983 20.339)" height="1052.362" width="744.094"/><path d="M85.68 493.973c0 9.127-9.106 16.525-20.34 16.525s-20.338-7.398-20.338-16.525 9.106-16.526 20.339-16.526 20.339 7.4 20.339 16.526z" fill="#fff"/><g id="1267612374-d"><path d="M106 839.86c0 12.979-11.193 23.5-25 23.5s-25-10.521-25-23.5 11.193-23.5 25-23.5 25 10.521 25 23.5z" fill="navy" transform="translate(375.51 -1478.6) scale(2.5424)"/><path d="M162 990.86c0 3.59-3.358 6.5-7.5 6.5s-7.5-2.91-7.5-6.5 3.358-6.5 7.5-6.5 7.5 2.91 7.5 6.5z" transform="translate(228.05 -1852.333) scale(2.5424)" fill="url(#1267612374-c)"/></g><use id="1267612374-E" xlink:href="#1267612374-d" transform="translate(-2.542 177.97)" height="1052.362" width="744.094" y="0" x="0"/><use id="1267612374-f" xlink:href="#1267612374-e" transform="translate(376.27 249.15)" height="1052.362" width="744.094" y="0" x="0"/><use xlink:href="#1267612374-f" transform="translate(-58.475 88.983)" height="1052.362" width="744.094"/><g id="1267612374-g"><path d="M106 839.86c0 12.979-11.193 23.5-25 23.5s-25-10.521-25-23.5 11.193-23.5 25-23.5 25 10.521 25 23.5z" fill="navy" transform="translate(345 -1534.5) scale(2.5424)"/><path d="M162 990.86c0 3.59-3.358 6.5-7.5 6.5s-7.5-2.91-7.5-6.5 3.358-6.5 7.5-6.5 7.5 2.91 7.5 6.5z" transform="translate(197.54 -1908.233) scale(2.5424)" fill="url(#1267612374-c)"/></g><use id="1267612374-h" xlink:href="#1267612374-g" transform="translate(-101.69 142.37)" height="1052.362" width="744.094" y="0" x="0"/><use id="1267612374-i" xlink:href="#1267612374-h" transform="translate(-124.58 12.712)" height="1052.362" width="744.094" y="0" x="0"/><use id="1267612374-j" xlink:href="#1267612374-i" transform="translate(137.29 -83.898)" height="1052.362" width="744.094" y="0" x="0"/><use id="1267612374-k" xlink:href="#1267612374-j" transform="translate(106.78 -177.97)" height="1052.362" width="744.094" y="0" x="0"/><use id="1267612374-l" xlink:href="#1267612374-k" transform="translate(-106.78 106.78)" height="1052.362" width="744.094" y="0" x="0"/><use id="1267612374-m" xlink:href="#1267612374-l" transform="translate(-104.24 86.441)" height="1052.362" width="744.094" y="0" x="0"/><use id="1267612374-n" xlink:href="#1267612374-m" transform="translate(-91.525 -25.424)" height="1052.362" width="744.094" y="0" x="0"/><use id="1267612374-o" xlink:href="#1267612374-n" transform="translate(99.153 -55.932)" height="1052.362" width="744.094" y="0" x="0"/><use id="1267612374-A" xlink:href="#1267612374-o" transform="translate(99.153 -76.271)" height="1052.362" width="744.094" y="0" x="0"/><use id="1267612374-q" xlink:href="#1267612374-p" transform="translate(5.085 88.983)" height="1052.362" width="744.094" y="0" x="0"/><use id="1267612374-r" xlink:href="#1267612374-q" transform="translate(297.46 -218.64)" height="1052.362" width="744.094" y="0" x="0"/><use id="1267612374-s" xlink:href="#1267612374-r" transform="translate(-350.85 43.22)" height="1052.362" width="744.094" y="0" x="0"/><use id="1267612374-t" xlink:href="#1267612374-s" transform="translate(307.63 58.475)" height="1052.362" width="744.094" y="0" x="0"/><use id="1267612374-u" xlink:href="#1267612374-t" transform="translate(-63.559 -88.983)" height="1052.362" width="744.094" y="0" x="0"/><use id="1267612374-v" xlink:href="#1267612374-u" transform="translate(-94.068 177.97)" height="1052.362" width="744.094" y="0" x="0"/><use id="1267612374-w" xlink:href="#1267612374-v" transform="translate(45.763 -86.441)" height="1052.362" width="744.094" y="0" x="0"/><use id="1267612374-B" xlink:href="#1267612374-w" transform="translate(-73.729 -17.797)" height="1052.362" width="744.094" y="0" x="0"/><use id="1267612374-C" xlink:href="#1267612374-x" transform="translate(-203.39 -22.881)" height="1052.362" width="744.094" y="0" x="0"/><use id="1267612374-z" xlink:href="#1267612374-y" transform="translate(-15.254 -71.186)" height="1052.362" width="744.094" y="0" x="0"/><use id="1267612374-b" xlink:href="#1267612374-z" transform="translate(122.03 -15.254)" height="1052.362" width="744.094" y="0" x="0"/><use id="1267612374-p" xlink:href="#1267612374-A" transform="matrix(1.08 0 0 .93617 -253.26 -25.947)" height="1052.362" width="744.094" y="0" x="0"/><use id="1267612374-x" xlink:href="#1267612374-B" transform="translate(35.593 -86.441)" height="1052.362" width="744.094" y="0" x="0"/><use id="1267612374-y" xlink:href="#1267612374-C" transform="translate(124.58 15.254)" height="1052.362" width="744.094" y="0" x="0"/><use id="1267612374-e" xlink:href="#1267612374-D" transform="translate(-221.19 -353.39)" height="1052.362" width="744.094" y="0" x="0"/><path d="M309.81 214.88c-19.87 5.71-33.23-10.87-45.18-34.76-11.14-22.27-19.69-49.8-31.28-72.99-10.84-21.685-23.88-27.354-41.71-45.191-23.74-23.733 7.33-31.474 27.8-41.71 18.23-9.114 37.11 35.973 41.71 45.186 7.09 14.171 6.58 36.745 10.43 52.135 4.71 18.84 1.9 35.08 10.43 52.14 12.9 25.81 25.76 59.81 52.13 72.99 8.34 4.17 21.87 1.6 31.29 3.48" fill-rule="evenodd" fill="#782121"/><use xlink:href="#1267612374-E" transform="translate(-78.814 61.017)" height="1052.362" width="744.094"/><use id="1267612374-D" xlink:href="#1267612374-E" transform="translate(-175.42 -5.085)" height="1052.362" width="744.094" y="0" x="0"/></g></symbol><symbol id="Bicycle-Icon-2" viewBox="0 0 2000 1171"><path d="M739.61 37.43c25.38-13.36 55.66-16.3 83.4-9.5 28.57 7.32 57.09 14.81 85.68 22.03-3 12.53-6.32 24.98-9.47 37.46-81.962-19.067-110.306-37.394-148.11-12.32-31.814 20.446-47.841 66.131-24.34 105.1-15.7 38.86-31.48 77.68-47.18 116.53 209.97-.01 419.94.04 629.92-.03 12.1-27.04 24.46-53.96 36.46-81.04-46.13-20.4-91.44-42.65-135.56-67.1-22.276-12.31-13.17-46.041 12.63-45.69 84.32-.11 168.66 1.01 252.94 3.77 28.823 1.369 42.886 38.896 20.57 58.89-4.885 4.659-.766 2.186-109.5 51.62-12.29 27.8-24.71 55.54-36.88 83.39 33.26 57.26 66.29 114.65 99.5 171.94 258.108-129.121 549.152 83.398 524.73 348.8-5-.45-10.01-.78-15.01-1.14-8.708 140.844-102.693 263.012-235.44 307.97-206.97 70.868-428.318-66.6-456.93-284.1-21.77 1.49-43.55 2.94-65.32 4.47-3.77 34.66-25.24 66.77-55.95 83.3-3.969 3.24-6.911-10.536 23.38 87.16 11.48.02 22.98-.08 34.47.05-.03 12.93-.01 25.86-.01 38.8-32.94.02-65.88.01-98.82.01-.01-12.96-.01-25.91 0-38.86 7.93-.02 15.87-.01 23.8-.01-7.45-24.67-14.92-49.33-22.4-74-87.873 9.256-146.293-82.417-109.51-155.19-127.19-110.75-254.4-221.48-381.62-332.2-6.97 17.44-13.89 34.9-20.82 52.35 157.175 121.041 187.323 344.471 71.83 502.83-4.16-3.06-8.36-6.06-12.44-9.21-173.426 236.566-542.866 166.643-617.57-115.6-59.359-222.59 110.278-441.496 341.37-438.19.11-5.14.21-10.29.31-15.43 68.185.817 127.866 19.927 183.64 52.77 41.07-101.75 82.09-203.51 123.28-305.21-21.501-56.613 4.015-118.128 54.97-144.42m-75.45 297.83c-11.25 28.01-22.46 56.03-33.71 84.04 129.52 112.99 259.08 225.94 388.62 338.9 7.32-6.83 15.55-12.65 24.47-17.18-8.38-27.53-16.87-55.03-25.22-82.57-9.28-.11-18.56-.02-27.83-.05.01-12.71-.1-25.43.04-38.14 1.603-.488-5.879-.426 98.82-.39.01 12.84 0 25.68 0 38.52-10.13.02-20.25.01-30.37.01 7.28 23.61 14.61 47.21 21.92 70.82 11.85-1.28 23.88-.9 35.58 1.45 58.6-131.78 117.1-263.6 175.66-395.4-209.33-.01-418.65.01-627.98-.01m487.81 410.39c22.89 14.53 39.98 37.94 46.54 64.27 16.59-.8 33.19-1.68 49.78-2.54-2.752-132.047 64.387-249.278 167.02-315.78-28.29-49.3-56.68-98.55-84.98-147.84-59.55 133.92-118.94 267.91-178.36 401.89M260.63 528.59c-207.926 86.861-243.263 368.162-62.39 503.19 81.52 61.309 189.52 74.576 282.59 37.12 201.75-80.466 245.938-347.312 85.25-488.63-64.469 158.052-63.355 156.801-71.14 170.68-25.55 44.982-74.516 69.963-123.82 67.33-20.138-1.047-24.756-29.524-5.73-36.76 8.535-3.648 32.695 3.61 64.04-16.09 15.46-9.71 28.19-23.82 36-40.34 22.82-56.54 45.56-113.11 68.39-169.65-78.862-53.31-182.425-64.898-273.19-26.85m1224.95 6.61c42.48 73.69 84.97 147.37 127.45 221.06 31.217 1.221 50.112 35.148 35.04 61.75-12.877 24.079-48.019 30.651-69.05 5.47-85.24 5.61-170.48 11.23-255.72 16.87 32.498 217.615 286.328 324.049 463.11 191.2 120.604-90.198 151.51-257.263 74.99-383.96-77.727-129.452-241.438-177.731-375.82-112.39m-164.92 266.94c83.9-5.61 167.79-11.25 251.69-16.87 1.98-4.03 3.94-8.07 5.89-12.11-42.12-72.95-84.23-145.9-126.36-218.85-85.471 55.883-133.622 153.238-131.22 247.83z"/></symbol><symbol id="determined-man" viewBox="0 0 124.831 160.219"><path d="M54.65 153.792l-18.733-1.972-7.888-4.93L9.623 96.933l1.644-13.146-6.245-17.09L7.98 44.675 1.407 33.83l55.215-18.406 56.86 26.294 2.3 38.782-13.475 29.58-9.531 17.42-15.119 10.845-13.804 9.86z" fill="#f19182" fill-rule="evenodd"/><path d="M10.28 45.004l2.959-6.244 16.104-6.245 4.93 1.972 11.832-6.902 7.56 1.972 3.615 4.601-3.616 8.546v3.944l9.86.328 4.273-4.93 4.93.329 11.832 2.958-.986 12.49-.986 7.559 6.245 9.202 3.286-.329 11.175-9.53 9.531-11.833-8.874-36.153-16.433-9.202-28.923-5.588-23.006 3.616-16.433 6.244-6.245 6.245-10.189 9.86-1.314 8.216 5.258 7.888z" fill="#f6df68" fill-rule="evenodd"/><path d="M55.623.005C50.05-.09 43.215 1.09 39.117 3.164c-2.068 1.046-5.86 2.155-8.425 2.462-5.423.65-12.468 3.978-15.334 7.243-4.91 5.593-6.4 7.059-8.946 8.8-7.021 4.804-8.429 12.76-3.466 19.61 2.908 4.015 3.025 4.518 2 8.592-.6 2.38-1.088 7.941-1.088 12.357 0 6.378.51 9.183 2.484 13.648 2.157 4.877 2.431 6.703 2.063 13.78-.296 5.678.025 9.372 1.06 12.156.818 2.2 2.42 7.15 3.56 11 3.398 11.468 6.892 20.676 9.952 26.236 1.584 2.88 2.88 5.894 2.88 6.7 0 3.303 10.299 8.544 16.821 8.56 2.278.01 5.357 2.209 5.14 3.68-.06.41.712 1.07 1.715 1.465 2.768 1.09 10.124.994 10.827-.143.34-.552 1.674-.74 2.965-.416 1.29.324 3.4 0 4.689-.71 1.289-.716 2.569-1.344 2.844-1.397 2.072-.4 8.19-3.616 7.738-4.069-.312-.312-1.507-.065-2.654.55-1.205.644-2.084.713-2.084.163 0-.523.562-1.177 1.25-1.455.687-.277.263-.54-.942-.584-2.463-.089-4 1.523-2.066 2.168.69.23-.13.42-1.826.42-1.951 0-3.084-.506-3.084-1.377 0-.757.61-1.141 1.355-.855.745.286 3.408-1.05 5.918-2.965 2.51-1.916 4.949-3.245 5.418-2.955.47.29 1.218-.088 1.664-.84.447-.752 2.297-1.654 4.112-2.006 2.342-.453 3.095-.309 2.595.5-.455.737-.256.863.563.357.72-.445 1.597-.245 2.035.463.54.873 2.423-.395 6.295-4.236 7.638-7.577 14.139-20.87 14.181-29 .017-3.161.37-5.75.782-5.75.412-.001.75-.973.75-2.158 0-1.186 1.029-3.548 2.287-5.25 2.12-2.868 5.192-8.84 8.28-16.096.701-1.65 1.325-5.85 1.386-9.334.1-5.672-.111-6.393-2.02-6.893-1.97-.515-2.09-1.04-1.593-6.947.295-3.514.062-9.188-.518-12.607-.58-3.42-1.16-7.119-1.29-8.219-.128-1.1-.56-2.9-.958-4-.4-1.1-1.287-3.575-1.975-5.5-3.373-9.445-11.646-17.071-16.757-15.45-1.474.469-2.922-.201-5.194-2.4C89.503 5.621 82.473 3 73.858 2.762c-4.125-.115-9.433-.923-11.793-1.798C60.428.358 58.157.05 55.623.005zm-.24 3.891c7.383-.08 13.855 2.398 18.164 7.266 4.007 4.526 5.093 3.766 1.717-1.202l-2.541-3.738 4.816.567c6.288.74 14.406 4.887 18.743 9.574 4.769 5.155 8.737 14.968 9.337 23.096.691 9.352-.626 23.853-2.166 23.853-.672 0-2.514 1.35-4.095 3s-2.367 3-1.746 3c.62 0 1.42-.474 1.777-1.053.358-.578 1.169-.878 1.8-.668.633.211 1.75-.215 2.481-.947 1.536-1.536 5.188-1.795 5.188-.367 0 .53-.9 1.446-2 2.035-1.1.589-2 .81-2 .49 0-1.282-5.088 4.61-5.96 6.9-1.447 3.808 1.031 5.263 3.712 2.18 1.147-1.319 1.822-2.662 1.5-2.984-.322-.322.205-.586 1.172-.586 1.554 0 1.687.72 1.146 6.219-.567 5.77-.497 6.076.961 4.25 1.52-1.904 1.55-1.888.912.531-1.322 5.017-4.421 11.133-5.351 10.559-.525-.325-1.28-.064-1.678.58-.452.73-.292.902.43.457 1.892-1.17 1.31.955-.782 2.847-1.065.965-2.34 1.506-2.832 1.202-.492-.305-.918 1.787-.947 4.65-.109 10.672-3.087 19.458-7.37 21.75-1.142.612-3.71 2.653-5.704 4.535-1.995 1.882-3.983 3.476-4.418 3.545-.436.069-1.279.181-1.873.25-.595.069-1.607.808-2.25 1.64-1.347 1.744-6.668 5.31-6.668 4.47 0-.624-.88.055-5.975 4.623-1.91 1.711-4.581 3.535-5.937 4.05-1.356.516-6.435.856-11.288.758-11.994-.243-14.312-1.528-19.019-10.549-4.087-7.83-9.16-23.897-8.12-25.717.362-.632.287-.812-.167-.4-.455.412-2.31-3.724-4.12-9.191-2.998-9.06-3.204-10.455-2.337-15.748.523-3.195.954-6.148.957-6.561.01-1.316 3.715-.804 4.95.684 1.64 1.977 5.002 1.528 7.536-1.006 2.857-2.857 2.123-4.307-2.564-5.057-2.154-.344-3.916-1.093-3.916-1.664s-.295-.746-.655-.387c-.359.36-2.271-.346-4.25-1.568-1.978-1.223-3.708-2.116-3.845-1.986-.138.13-.763.234-1.389.234-.82 0-.976-3.54-.56-12.717.477-10.534.876-12.938 2.328-14 1.424-1.042 1.469-1.283.236-1.283-2.949 0-6.134-4.714-6.565-9.717-.473-5.493 1.767-10.019 6.4-12.931 1.54-.968 4.523-3.274 6.63-5.125 4.363-3.834 11.603-7.227 15.424-7.227 1.423 0 5.369-1.11 8.767-2.47 4.816-1.927 9.574-2.898 14.004-2.946zm1.762 10.049c-5.015.042-7.51.707-12.963 3.459-3.714 1.874-6.925 3.984-7.133 4.687-.208.704 1.576.01 3.965-1.543 8.067-5.242 16.632-6.808 22.94-4.195 3.902 1.617 6.183.544 2.404-1.13-1.65-.732-5.797-1.306-9.213-1.278zm-20.94.367c-1.838 0-5.42 4.651-4.808 6.244.328.855.12 1.848-.461 2.207-.665.411-.813.017-.399-1.062 1.034-2.693-1.46-.712-3.103 2.465-1.122 2.168-1.178 3.468-.274 6.359l1.137 3.633 2.772-5.067c1.524-2.787 3.924-6.578 5.332-8.423 1.904-2.498 2.177-3.356 1.066-3.356-.82 0-1.77.45-2.11 1-.34.55-1.12 1-1.734 1-.613 0-.057-1.125 1.235-2.5 1.291-1.375 1.897-2.5 1.347-2.5zm53.19 2.537c-.138.003-.245.1-.313.3-.248.737.05 1.84.662 2.452 2.005 2.005 1.266 9.903-1.357 14.49-1.345 2.353-2.205 4.907-1.91 5.674.615 1.603-2.326 3.477-5.055 3.22-1.018-.095-2.048.391-2.29 1.079-.292.827.18 1.048 1.392.654 1.53-.496 1.586-.413.334.5-1.31.956-1.317 1.213-.041 2.033 1.247.802 1.174 1.277-.5 3.25-1.953 2.303-1.952 2.306.04.713 1.1-.878 2.676-1.977 3.5-2.441 1.21-.68 1.274-.564.337.598-.966 1.197-.593 1.461 2.195 1.558 2.006.07 3.567-.433 3.88-1.25.29-.752 1.262-1.367 2.163-1.367 1.063 0 1.432-.539 1.049-1.537-.346-.9.07-1.79 1.002-2.149 1.433-.55 1.424-.705-.09-1.552-1.572-.88-1.568-1.068.047-2.852 1.007-1.113 1.245-1.91.572-1.91-.635 0-1.102-.337-1.037-.75.497-3.15-.334-3.415-2.922-.936-3.951 3.786-4.655 3.336-1.72-1.097 3.45-5.216 4.261-11.894 1.976-16.297-.799-1.539-1.5-2.391-1.914-2.383zM52.68 23.312c-.55 0 .176 1.399 1.613 3.107 2.16 2.568 2.529 3.819 2.12 7.213-.273 2.26-1.41 5.344-2.526 6.854-2.324 3.143-2.577 4.223-.78 3.312.688-.348.436.031-.56.844-1.993 1.628-.819 3.04 1.719 2.067.875-.336 1.592-.111 1.592.498 0 .608.271 1.105.605 1.105.334 0 .35-.674.033-1.498-.35-.915.379-2.123 1.875-3.104 3.203-2.098 6.505-7.509 6.416-10.515-.065-2.224-.127-2.25-.93-.383-.828 1.928-.861 1.923-.929-.19-.102-3.174-2.07-3.952-2.07-.818 0 3.105-2.176 7.597-4.64 9.582-1.414 1.138-1.326.693.433-2.191 2.945-4.83 2.82-8.998-.383-12.805-1.424-1.692-3.038-3.078-3.588-3.078zM29.7 24.369c.136.047-.12.577-.715 1.693-1.24 2.327-2.127 2.9-2.127 1.373 0-.483.747-1.495 1.662-2.25.566-.467.926-.746 1.097-.807.036-.012.063-.016.082-.01zm41.48.392c-.175.036-.23.82-.26 2.487-.035 1.888-.972 5.311-2.084 7.607-2.24 4.63-9.3 11.728-10.59 10.648-.453-.38-.248.065.455.987 1.73 2.267 5.857.808 9.817-3.47 4.944-5.344 5.96-10.54 3.336-17.048-.329-.814-.538-1.239-.674-1.21zm-24.879.045c-3.303-.046-9.583 2.19-10.283 3.776-.187.422-.862 1.322-1.5 2-.639.677-1.196 2.238-1.238 3.468L33.2 36.29l3.329-2.54c1.83-1.396 3.333-2.178 3.341-1.738.008.44.4.197.87-.543 1.285-2.028 10.692-2.436 12.584-.545 1.247 1.247 1.533 1.273 1.533.135 0-2.287-4.453-5.772-7.94-6.213a5.567 5.567 0 00-.617-.039zm35.443 1.178c-.255-.002-.72 1.438-1.494 4.316-1.395 5.195-5.844 11.471-7.433 10.489-.404-.25-1.31.241-2.016 1.091-1.057 1.273-1.033 1.491.137 1.239.924-.2 1.3.373 1.08 1.64-.284 1.629-.093 1.743 1.164.7 1.21-1.005 1.76-.966 2.838.203 1.744 1.891 2.504 1.16.857-.825-1.042-1.256-.988-1.523.315-1.523 2.11 0 6.373-7.51 7.095-12.5l.579-4-1.479 3.5-1.48 3.5.076-3.5c.063-2.884.017-4.328-.239-4.33zM17.85 31.466c-1.525.063-2.948.395-3.52.87-.762.632-1.885.84-2.496.462-1.641-1.014-3.72 2.413-3.18 5.243.358 1.87.696 2.136 1.413 1.115.782-1.115 1.033-1.117 1.476-.012.388.966 1.326.573 3.414-1.428 1.584-1.517 3.175-2.462 3.537-2.1.363.363 1.536-.344 2.606-1.572l1.945-2.232-3.664-.314a12.214 12.214 0 00-1.531-.032zm84.752 10.498c-.222.01-.608.63-1.145 1.848-.727 1.65-2.571 4.238-4.097 5.75-2.899 2.872-2.709 3.466.552 1.72 2.22-1.187 4.964-6.036 4.907-8.67-.01-.437-.084-.653-.217-.648zM86.905 53.91c-1.507.05-2.268.28-1.766.6.789.5.446.778-.973.788-3.254.023-3.95 2.079-1.4 4.143 1.556 1.26 2.735 1.53 3.91.898.925-.498 2.857-1.15 4.295-1.45 1.878-.393 2.582-1.142 2.5-2.663-.098-1.812-.794-2.145-4.832-2.305a24.009 24.009 0 00-1.734-.011zm-.489 9.775c-6.595.088-9.676.512-10.011 1.377-.267.688.19 1.25 1.015 1.25s1.758.675 2.074 1.5c.731 1.904 3.458 1.819 10.284-.322 8.636-2.71 7.539-3.95-3.362-3.805zM34.16 66.822c-.19.028-.43.18-.73.43-1.469 1.219-.92 4.431 1.678 9.81.597 1.238 1.516 2.25 2.04 2.25.526 0 .454-.603-.16-1.342-.612-.738-.818-1.638-.456-2 .361-.362.133-.658-.508-.658-.72 0-1.166-1.766-1.166-4.621 0-2.917-.128-3.954-.698-3.87zm58.801 3.344a.741.741 0 00-.209.004c-.374.053-.957.335-1.851.802-1.4.73-3.06 1.334-3.688 1.334-.628.003-1.41.705-1.738 1.559-.342.89-.174 1.292.392.941.544-.336.99-.135.99.448 0 1.309 2.98 1.357 5 .08.826-.522 1.52-2.015 1.544-3.319.022-1.216-.012-1.786-.44-1.85zM66.748 71.85c-1.766-.04-3.198.148-3.504.643-.278.45-1.548.818-2.824.818-1.275 0-4.058.727-6.183 1.615-2.657 1.11-5.49 1.449-9.06 1.08-4.283-.442-5.099-.28-4.638.922.735 1.916 7.05 4.6 10.702 4.55 1.586-.023 3.531.607 4.322 1.397 1.87 1.87 5.715 1.84 7.289-.056.911-1.098 2.331-1.327 5.37-.863l4.136.63-2.332-2.074c-1.282-1.14-2.975-1.829-3.762-1.527-1.037.398-1.242.06-.748-1.227.503-1.311.334-1.56-.645-.955-.809.5-1.083.428-.705-.183.788-1.275 6.692-1.487 6.692-.24 0 .513.728.931 1.62.931 1.3 0 1.386.288.429 1.441-1.028 1.238-.773 1.282 1.814.305 1.656-.625 2.757-1.549 2.445-2.053-.311-.503.055-1.35.813-1.88 1.13-.791 1.11-.883-.121-.518-.825.245-2.25-.204-3.162-.998-1.133-.985-5.004-1.69-7.948-1.758zm42.164.229c.47.08.687 1.144.768 3.494.08 2.33-.317 4.913-.88 5.738-.773 1.13-.917.716-.585-1.67.264-1.893-.19-4.108-1.127-5.5-.863-1.281-1.197-1.995-.742-1.588.454.408 1.359.3 2.008-.238.218-.181.402-.263.558-.236zm-98.437 4.394c.406-.073 1.51.557 3.607 1.836 1.801 1.098 2.748 2 2.106 2-.643.002-1.799.245-2.57.541-.853.327-1.859-.459-2.561-2-.697-1.53-.989-2.304-.582-2.377zm93.351 2.838c-.956 0-2.346 3.117-2.095 4.7.104.658-.672 1.657-1.725 2.22-2.165 1.159-3.45 3.784-2.56 5.225 1.65 2.67 6.182-2.97 6.746-8.395.214-2.062.05-3.75-.366-3.75zM30.311 80.73c-.572.079-.452.88.545 2.082.932 1.123 1.102 3.516.617 8.73-.367 3.952-.995 7.43-1.393 7.729-.398.299-.874 3.058-1.058 6.135-.252 4.194.078 6.006 1.314 7.242.907.907 1.426 2.011 1.153 2.453-.273.442.71.783 2.185.758 2.211-.038 2.7-.52 2.783-2.746.055-1.485-.395-2.61-1-2.5-.605.11-.95-.476-.767-1.301.183-.825.012-1.178-.381-.785-1.373 1.373-4.292-1.11-3.748-3.19.288-1.1.871-1.786 1.297-1.523.425.263.753-.08.728-.762-.16-4.442.394-8.78 1.067-8.365.437.27.488-2.458.115-6.06-.387-3.734-1.253-6.908-2.016-7.38-.474-.293-.862-.454-1.154-.505a.938.938 0 00-.287-.012zm61.924.527c-.575.024-1.25.755-1.246 1.805.026 6.822-3.677 17.372-5.47 15.58-.364-.364-.661.13-.661 1.1 0 .969-.976 3.132-2.168 4.806-2.122 2.98-3.081 8.78-1.946 11.764.33.867.863-.19 1.26-2.5 1.182-6.865 1.585-8.008 2.737-7.75.614.138 1.008-.087.875-.5-.5-1.549 3.09-5.46 4.316-4.703.725.448.98.35.617-.236-.34-.55.198-3.207 1.197-5.905 1.511-4.08 1.966-8.696 1.246-12.656-.105-.579-.412-.819-.757-.805zm-45.657.498c-.268-.051-.69.118-1.275.604-.855.71-1.996 2.113-2.535 3.121-1.22 2.28-.156 2.364 2.26.178 1.766-1.6 2.354-3.747 1.55-3.903zm-32.222 4.018c-.71-.047-.446.771.568 2.666 1.227 2.293 5.018 2.21 5.742-.127.256-.825.121-1.18-.299-.789-.42.39-2.056.042-3.636-.775-1.174-.607-1.95-.947-2.375-.975zm41.105.326c-1.703-.06-2.176.291-2.176 1.238 0 1.173 1.017 1.556 4.036 1.522 5.455-.062 5.66-1.918.283-2.568a26.463 26.463 0 00-2.143-.192zm-29.023.213c-1.23 0-3.58 1.322-3.58 2.014 0 .44.9.565 2 .277 1.665-.435 2.944-2.291 1.58-2.291zm14.844 16.031a.354.354 0 00-.297.23c-.205.535.245 1.363 1 1.84 2.45 1.553 3.272.949 1.297-.954-.795-.766-1.574-1.181-2-1.116zm8.607 4.795a.453.453 0 00-.166.01c-.157.036-.342.146-.557.324-.655.544-.943 1.63-.642 2.414.874 2.28 2.134 1.65 1.976-.988-.068-1.145-.25-1.71-.611-1.76zm-5.375 1.606c-1.152-.063-3.243.34-5.084 1.111-1.903.797-1.903.817 0 1.563 2.805 1.098 6.216 1.046 6.928-.106.34-.55.115-1-.5-1s-.859-.42-.541-.934c.243-.392-.112-.597-.803-.634zm9.873 2.172c-.887.03-1.638.183-1.975.5-1.21 1.137 2.504 4.71 4.282 4.117.712-.238 1.543.516 1.845 1.674.303 1.158.974 2.105 1.493 2.105.518 0 .666.45.326 1s-.187 1 .341 1c1.333 0 3.145 5.569 3.221 9.9.056 3.164.172 3.327.967 1.35.497-1.237 1.198-2.25 1.555-2.25s.394 1.013.082 2.25c-.524 2.08-.466 2.116.777.455 1.38-1.843.98-6.083-.488-5.176-.45.278-1.1.047-1.446-.511-.345-.56-.12-1.018.502-1.018.637 0 .42-.712-.498-1.629-.896-.896-1.393-2.246-1.103-3 .29-.754.174-1.371-.256-1.371s-1.399-1.575-2.154-3.5c-.756-1.925-1.767-3.5-2.246-3.5-.48 0-.627-.398-.325-.887.461-.746-1.871-1.393-3.978-1.5-.316-.016-.626-.02-.922-.01zm-26.93 2.011c-.25.028-.597.24-1.05.694-.798.797-1.73 2.743-2.07 4.322l-.62 2.869 2.07-2.36c2.006-2.287 2.756-5.643 1.67-5.525zm75.973 4.74a.51.51 0 01.258.143c.213.213-.592 1.764-1.79 3.445-1.29 1.813-1.693 3.057-.988 3.057.897 0 .885.37-.052 1.5-.685.825-2.316 1.5-3.623 1.5-1.308 0-2.377.436-2.377.969 0 .533.7.7 1.556.37 1.08-.413.772.562-1 3.173-1.406 2.072-2.556 4.156-2.556 4.629 0 .473-.338.77-.75.66-.917-.244-7.343 3.703-6.998 4.299.135.234-.152-.063-.639-.662-.61-.751-1.667-.367-3.396 1.236-1.381 1.28-2.99 2.326-3.577 2.326-.586 0 .493-1.332 2.397-2.96 1.904-1.63 3.984-2.785 4.62-2.567.638.217 1.433-.701 1.769-2.04.476-1.896 1.267-2.433 3.591-2.433 1.983 0 2.983-.502 2.983-1.5 0-.825.48-1.5 1.066-1.5.587 0 .823-.787.524-1.75-.606-1.945.591-4.449 2-4.184 2.037.385 3.49-.124 2.933-1.025-.905-1.464 2.615-6.99 4.049-6.685zm-52.883 5.249c-1.565-.022-3.585-.005-6.185.027-12.67.16-18.504.936-18.504 2.46 0 .63 1.39.707 3.75.21 4.331-.914 19.452-.852 23.5.096 2.21.517 2.75.293 2.75-1.135 0-1.207-.615-1.595-5.31-1.658zm-13.935 4.421c-.09-.01-.221.237-.418.725-.278.688-1.141 1.25-1.92 1.25-2.32 0-1.605 2.825.834 3.295 6.408 1.235 14.75.089 14.75-2.025 0-1.412-6.824-3.048-7.963-1.909-.718.719-1.037.66-1.037-.195 0-.925-.502-.968-2-.166-1.515.81-2.02.759-2.08-.215-.031-.502-.077-.754-.166-.76zm62.879 2.409c.176-.014.447.044.804.181 1.363.523 1.34.852-.197 2.803-.958 1.216-3.428 3.69-5.488 5.498-2.061 1.808-3.497 3.691-3.192 4.186.604.976.548.986-1.31.236-1.909-.77-1.488-3.338.547-3.338 2.294 0 9.65-7.465 8.765-8.896-.257-.417-.224-.647.07-.67zm-26.213 15.779c.078 0 .132.01.162.039.263.263-.546 1.134-1.801 1.937-2.553 1.635-5.781 2.953-5.781 2.362 0-.697 6.248-4.284 7.42-4.338z"/></symbol><symbol id="Dog-Leash" viewBox="0 0 283.5 226.8"><style>.st0{fill:#010202}</style><g id="XMLID_1_"><path id="XMLID_10_" class="st0" d="M68.8 99.7c22.3-11.4 34.4-21.9 40.9-30.1 1.3 1 2.5 1.6 3.7 1.8 7.8 1.4 25.7 12.1 54.5 11.9 28.8-.1 35-1.8 38-1.3s2.5-.2 3.2-3.2c.6-3 .6-21.2-4.7-35.2s-18.6-29.7-14.8-32.2c3.8-2.5 14.5 10.8 23.5 23.3s14 35 13 42.8-1.5 28 2.8 30.8c4.4 2.8 9.9 8.8 10.2 12.3s1 26.9 2.8 30.7c1.9 3.8 2.9 11.8 6.2 11.8s4.1 6.4 4.8 11.2 5.4 17.4 7.7 23.6c2.3 6.2 1.8 15.7.8 15.7s-6.9 1.3-9.8 1.8c-2.9.5-9.4 0-9.2-2.8s5.2-7.1 6.2-8.3c1-1.1 0-13.3-1-15.6s-4.3-9-10.5-12.3-26.3-19-30-23.8c-3.6-4.8-4.5-15.6-21.3-12.8s-40.8 10-48.9 9.8c-8.1-.1-18.3 3.2-21.6 2.7s-4.6 0-5.3 7.2c-.6 7.1-3.1 39.6-4.3 42.3-1.1 2.7-3.1 14.7-4.8 14.7s-18.5-.2-17-2.2.9-6.9 4.2-8.2c3.3-1.4 4.3-2.2 4.3-4.2s-2.2-41-2.5-45.8c-.3-4.9-1.8-14-5-17.7s-6.5-8-9.5-13-3.8-7-3.3-12.7c.2-3.1-1.5-8.4-3.3-13z"/><path id="XMLID_9_" class="st0" d="M22.3 53.7c1.2 8.2 4.8 9.4 10.6 12.5 5.9 3.1 19.1.6 21.2 2.7 2.1 2.1 9.6 20 11 22.7C87.2 80.2 98 70.1 103.3 63.1c-4.8-6-9-13.3-10.7-15.2-3.1-4-7-7.6-11.8-12.3-1.1-1.1-8.3-8.2-11-10.9-.7-.7-1.7-2-2.6-3.5-3.6-5.7-12.7-18.4-13.4-4.5-.3 5.3-.9 9.7-1.7 12.9-.2.7-.7 1.3-1.3 1.6-4.9 2.5-9.7 10.4-10.5 11.6s-11.4 2-15.5 3-3.7-.5-2.5 7.9z"/></g></symbol><symbol id="Fez-Hat" viewBox="0 0 1571.256 1724.137"><g stroke-width=".5"><path fill="#A00" stroke="#A00" d="M664.28 67.279c487.361-42.811 849.632 187.271 553.519 356.87-23.605 13.416-52.678 26.224-59.944 28.389-19.704-24.978-65.803-57.835-99.102-75.193-4.967-2.969-186.193-75.578-186.924-75.871 4.429-2.036 8.368-5.085 11.119-9.135l.832-.058c-.025-.263-18.576-110.668-18.619-110.929-2.221-28.268-104.504-32.205-107.821 2.057-1.339 8.778-14.795 95.361-15.832 100.612-9.795 18.606 39.387 30.584 87.355 27.309 54.717 40.742 137.666 67.901 308.804 149.028-96.634 42.418-349.661 83.092-593.684 34.722C75.077 400.964 155.675 113.025 664.28 67.279z"/><path fill="#333" stroke="#333" d="M776.325 164.229c14.577-5.1 30.315-6.092 45.622-4.969 11.199 1.065 22.596 3.232 32.533 8.733 5.056 2.86 10.193 7.135 10.681 13.359-.985 7.223-7.573 11.593-13.607 14.526-12.432 5.72-26.302 7.464-39.865 7.639-12.556-.058-25.288-1.561-37.086-6.041-6.982-2.758-14.14-6.866-17.262-14.067.066-.679.131-1.364.204-2.043 11.995-.161 23.997.08 35.991-.226-11.987-.102-23.967-.175-35.955-.131a11.579 11.579 0 013.145-7.427c4.21-4.494 9.879-7.289 15.599-9.353z"/><path stroke="#000" d="M757.581 181.009c11.987-.044 23.967.029 35.955.131-11.995.306-23.997.066-35.991.226l.036-.357zM865.161 181.352c5.056 30.468 10.251 60.922 15.358 91.39.861 6.552 2.641 12.95 3.261 19.539l-.832.058c-47.431-.715-94.87-1.109-142.302-1.868.277-2.152.584-4.297.861-6.45 1.299-6.574 2.116-13.235 3.225-19.845 4.188-26.922 8.5-53.83 12.608-80.767 3.123 7.201 10.28 11.309 17.262 14.067 11.798 4.48 24.529 5.983 37.086 6.041 13.563-.175 27.433-1.919 39.865-7.639 6.035-2.932 12.623-7.303 13.608-14.526z"/><path fill="maroon" stroke="maroon" d="M1323.424 281.921c2.902 16.518-9.996-60.195 191.258 1135.822-.992-.029-1.963-.044-2.911-.029 3.672 31.578-12.126 57.936-33.963 80.701-203.951 204.86-1076.491 221.026-1353.426 27.915-92.638-64.257-64.135-118.512-62.147-132.146C242.777 242.494 231.397 314.784 233.567 302.08c2 7.368 3.471 26.779 22.997 53.801 57.439 78.173 192.101 120.069 287.419 139.201 244.329 48.431 498.008 7.276 593.684-34.722 3.933 1.86 8.048 3.312 12.133 4.837-16.646 61.926-3.446 141.179 25.66 421.221-34.406 23.757-28.518 40.032-29.25 48.803-2.13 49.598-4.188 99.204-6.289 148.802-.445 6.085 0 12.272-1.408 18.255-.956 4.582-.379 9.733 2.663 13.461 11.281 14.418 43.18 11.647 61.359 8.193 34.678-6.756 81.896-28.198 98.533-54.713 2.101-3.072 2.823-6.836 4.969-9.871-.041-1.344-26.995-135.952-33.467-168.421-.912-4.808-1.802-9.944-5.107-13.768-11.247-13.395-36.571-11.786-53.48-7.581.385-27.976-.909-50.689-1.736-56.238-52.868-378.567-46.74-350.819-54.392-360.803 8.885-2.647 147.75-55.681 163.803-145.548 1.737-8.244 1.437-16.7 1.766-25.068z"/><path fill="#333" stroke="#333" d="M742.099 294.156c-2.408-2.853-2.262-6.96-.591-10.134-.277 2.152-.584 4.297-.861 6.45 47.431.759 94.87 1.153 142.302 1.868-2.751 4.049-6.69 7.099-11.119 9.135-13.469 6.209-28.316 8.536-42.966 9.857-22.333 1.525-45.162.533-66.729-5.859-7.224-2.525-15.096-5.101-20.036-11.317z"/><path stroke="#000" d="M828.863 311.331c14.65-1.321 29.498-3.648 42.966-9.857 56.267 22.574 112.461 45.323 168.706 67.933 6.143 2.459 12.505 4.524 18.218 7.938 24.004 12.513 46.461 27.871 67.576 44.776 11.236 9.324 22.45 18.911 31.526 30.417 1.963 2.561 3.794 5.29 4.961 8.317.605 2.335.182 4.815.817 7.165 1.328 5.093 2.072 10.317 2.933 15.511 15.271 109.929 30.329 219.887 45.68 329.809.97 6.508.722 13.118 1.306 19.67.584 12.177.598 24.376.43 36.568 10.12-2.517 20.677-3.67 31.081-2.627 8.201 1.021 16.898 3.655 22.399 10.207 3.305 3.823 4.195 8.96 5.107 13.768a279894.782 279894.782 0 0030.964 155.15c1.335 4.319 2.364 8.719 2.503 13.271-2.145 3.035-2.867 6.8-4.969 9.871-4.239 6.756-9.879 12.564-16.131 17.474-9.923 8.31-21.18 14.855-32.759 20.575-15.84 7.398-32.453 13.315-49.642 16.664-14.016 2.663-28.571 4.093-42.703 1.466-6.88-1.445-14.169-3.925-18.656-9.66-3.042-3.728-3.619-8.879-2.663-13.461 1.408-5.983.963-12.17 1.408-18.255 2.101-49.598 4.159-99.204 6.289-148.802.496-5.946-.773-12.133 1.576-17.817 4.947-13.388 16.241-23.092 27.674-30.986-9.156-88.099-18.393-176.199-27.579-264.298-1.364-15.088-3.757-30.089-4.465-45.235-1.291-20.633-1.219-41.332-.204-61.972 1.065-16.679 2.233-33.511 6.588-49.715-4.086-1.525-8.201-2.977-12.133-4.837-20.239-9.594-40.748-18.605-61.104-27.944-58.514-26.572-117.035-53.151-175.549-79.724-10.017-4.487-20.115-8.828-29.717-14.183-14.709-8.127-28.951-17.138-42.434-27.177z"/></g></symbol><symbol id="grapes red" viewBox="0 0 250.32 252.84"><path d="M91.69 159.966a22.427 17.733 0 11-44.851 0 22.427 17.733 0 1144.851 0z" fill="#633931"/><path d="M198.321 84.254a17.994 17.212 0 11-35.988 0 17.994 17.212 0 1135.988 0z" fill="#7f4231"/><path d="M227.521 70.584a17.994 17.212 0 11-35.988 0 17.994 17.212 0 1135.988 0zM176.161 73.584a17.994 17.212 0 11-35.988 0 17.994 17.212 0 1135.988 0zM241.521 127.58a17.994 17.212 0 11-35.988 0 17.994 17.212 0 1135.988 0zM171.981 126.258a17.994 17.212 0 11-35.988 0 17.994 17.212 0 1135.988 0zM107.311 149.729a17.994 17.212 0 11-35.988 0 17.994 17.212 0 1135.988 0zM105.741 205.015a17.994 17.212 0 11-35.988 0 17.994 17.212 0 1135.988 0z" fill="#7f4231"/><path d="M90.359 95.059a23.475 21.91 0 11-46.95 0 23.475 21.91 0 1146.95 0zM121.469 230.937a23.475 21.91 0 11-46.95 0 23.475 21.91 0 1146.95 0z" fill="#844239"/><path d="M91.149 127.306a23.475 21.91 0 11-46.95 0 23.475 21.91 0 1146.95 0zM150.159 137.067a23.475 21.91 0 11-46.95 0 23.475 21.91 0 1146.95 0zM46.949 185.407a23.475 21.91 0 11-46.95 0 23.475 21.91 0 1146.95 0z" fill="#844239"/><path d="M62.019 141.577a23.475 21.91 0 11-46.95 0 23.475 21.91 0 1146.95 0zM149.039 66.282a23.475 21.91 0 11-46.95 0 23.475 21.91 0 1146.95 0z" fill="#844239"/><path d="M210.579 195.368a20.605 20.605 0 11-41.21 0 20.605 20.605 0 1141.21 0zM114.089 94.705a20.605 20.605 0 11-41.21 0 20.605 20.605 0 1141.21 0z" fill="#9c4a39"/><path d="M129.219 129.65a20.605 20.605 0 11-41.21 0 20.605 20.605 0 1141.21 0z" fill="#9c4a39"/><path d="M166.892 93.035a30.255 24.778-14.177 11-58.667 14.82 30.255 24.778-14.177 1158.667-14.82z" fill="#ba8866"/><path d="M176.151 152.332a28.952 23.473 0 11-57.904 0 28.952 23.473 0 1157.904 0z" fill="#9c4a39"/><path d="M123.15 173.017a24.778 24.518 0 11-49.554 0 24.778 24.518 0 1149.555 0zM227.249 38.274a20.605 20.605 0 11-41.21 0 20.605 20.605 0 1141.21 0zM249.779 83.942a20.605 20.605 0 11-41.21 0 20.605 20.605 0 1141.21 0zM234.609 165.478a20.605 20.605 0 11-41.21 0 20.605 20.605 0 1141.21 0zM198.069 114.525a20.605 20.605 0 11-41.21 0 20.605 20.605 0 1141.21 0z" fill="#9c4a39"/><path d="M161.03 217.016a22.427 17.733 0 11-44.851 0 22.427 17.733 0 1144.851 0z" fill="#633931"/><path d="M188.15 211.406a22.427 17.733 0 11-44.851 0 22.427 17.733 0 1144.851 0zM217.15 119.558a22.427 17.733 62.561 11-20.667-39.805 22.427 17.733 62.561 1120.667 39.805zM189.925 69.85a22.427 17.733 46.464 11-30.895-32.514 22.427 17.733 46.464 1130.895 32.514z" fill="#633931"/><path d="M216.7 134.956a22.427 17.733 0 11-44.851 0 22.427 17.733 0 1144.851 0zM64.687 111.858a22.427 17.733-36.84 11-35.894 26.892 22.427 17.733-36.84 1135.894-26.892zM77.368 175.233a22.427 17.733-40.591 11-34.058 29.183 22.427 17.733-40.591 1134.058-29.183zM185.02 183.636a22.427 17.733 0 11-44.851 0 22.427 17.733 0 1144.851 0z" fill="#633931"/><path d="M147.241 170.447a17.994 17.212 0 11-35.988 0 17.994 17.212 0 1135.988 0zM80.358 211.309a23.73 20.341 0 11-47.46 0 23.73 20.341 0 1147.46 0zM107.831 65.234a17.994 17.212 0 11-35.988 0 17.994 17.212 0 1135.988 0zM202.191 160.784a17.994 17.212 0 11-35.988 0 17.994 17.212 0 1135.988 0z" fill="#7f4231"/><path d="M145.389 201.887a23.475 21.91 0 11-46.95 0 23.475 21.91 0 1146.95 0z" fill="#844239"/><path d="M215.069 53.414c.3-.92.53-3.276 2-4.75.17-.167.33-.333.5-.5 1.7-1.7 2.85-.9 3.5-3.5.51-2.051 2.05-3.297 3.5-4.75 1.22-1.225 1.68-2.183 2.75-3.25.65-.651 1.94-2.137 2.5-3.25.66-1.322 2.69-2.693 3.75-3.75s2.55-3.347 3.25-4.75c.77-1.543 1.72-2.92 2.25-4.5.35-1.056 2.25-1.31 2.25-3.25 0-1.664 2.5-3.395 2.5-5.5 0-1.174 1.5-2.396 1.5-3.75 0-1.502.29-2.172-.25-3.25-.5-1.006-2.42-2.167-1.75-3.5.17-.342 3.95-.723 4.5-1 1.39-.697 2 .976 2 2.25 0 1.382.5 2.192.5 3.75v3.75c0 1.61-1.36 3.193-1.75 4.75-.43 1.726-1.53 2.814-2.25 4.25-.94 1.877-2.92 3.418-4.5 5-.17.167-.33.333-.5.5-.66.656-.8 2.854-1.25 3.75-.98 1.954-1.52 4.29-2.5 6.25-.82 1.635-2.21 2.889-2.75 4.5-.46 1.375-1.9 2.653-3 3.75-1.4 1.404-2.51 2.755-3.75 4-.17.167-.33.333-.5.5-.94.945-1.52 2.772-2.5 3.75-1.64 1.639-.89 2 1 2 1.18 0 2.97.109 3.25.25.93.467-1.82 1.033-2.75 1.5-1.95.976-4.18 1.54-6 2.75l-.75.5c-.2.13-.33.333-.5.5-1.61 1.607-1.5-.56-1.5-1.75 0-1.625-1.02-2.962-2.75-3.25z" fill-rule="evenodd" fill="#b47956"/><path d="M154.349 84.94c-.06-.674 1.13-1.282 1.49-1.956.38-.696.98-1.273 1.35-1.957.19-.357 1.15-1.374 1.5-1.538.83-.387.9-1.257 1.94-1.257.71 0 1.47-.56 2.25-.56h2.69c.73 0 1.74.165 2.39-.14.84-.39 2.11-.007 2.99-.42.79-.366 1.94-.551 2.55-1.117.19-.183 2.08-.56 2.39-.56 1.03 0 1.83-.837 2.84-.837.74 0 1.75-.957 2.4-1.258.79-.37 1.24-.7 2.24-.7.79 0 1.67-.14 2.54-.14 1.83 0 3.21 1.75 5.69.98.03-.011-.15-1.35-.15-1.817 0-1.361-.47-3.461.15-4.613.3-.563 1.05-1.771 1.05-2.236 0-.122 1.87-4.891 2.09-5.73.17-.64 1.17-1.873 1.65-2.097 1.1-.515 1.14-2.743 1.94-3.494.57-.528.96-1.311 1.5-1.817.47-.445.98-1.864 1.19-2.655.2-.721 1.43-1.784 2.1-2.097.6-.281 1.28-1.677 2.09-1.677.66 0 1.23.344 1.5.839.27.505.75 1.13.75 1.677 0 1.016.12 1.498-.9 1.817-.71.222-1.3.607-2.09.978-.85.395-1.04 1.11-1.8 1.817-.57.529-.94 1.294-1.65 1.957-.74.699-1.49 1.398-2.24 2.096l-.3.28c-.26.24-.9 1.703-.9 2.096 0 .772-.45 1.11-.45 1.957 0 .755-.14 1.586-.14 2.376 0 .955.13 1.239.44 1.817.26.485.3 1.545.3 2.096v2.097c0 .648-.19 1.587.3 1.817.38.176-.25.699.6.699.35 0 1.27.94 1.65 1.118.59.275 1.52.572 2.09.838.8.373 1.36.569 2.25 1.118.84.524.92.884 1.34 1.678.41.77-.91 1.473-1.34 1.677-.89.412-1.1.838-2.25.838-.45 0-.69-1.158-.9-1.537-.26-.483-.8-.796-1.04-1.258-.21-.39-1.75-1.118-2.1-1.118-.9 0-1.1-.445-1.94-.84-1.32-.615-1.22-.41-2.4.14-1.18.554-1.36.827-.45 1.678.65.604 1.52.989 2.1 1.258.17.082.83 1.277.9 1.398.29.557.17 1.549.74 1.817.24.11.99 1.14 1.2 1.537.1.18-1.65.839-2.24.839-.72 0-1.82.988-2.4 1.258-.92.43-1.02.606-1.34 0-.23-.43-1.05-1.322-1.05-1.678 0-.493-1.2-.485-1.2-1.118 0-.328-1.16-.912-1.34-1.258-.39-.714-.53-1.012-1.5-.56-1.01.474-1.63.685-2.39 1.399l-.3.28c-.49.452-.44 1.665-.75 2.236-.34.64.15 1.949.3 2.236.27.508.49 1.343.75 1.817.35.662.3 1.302.3 2.096v2.237c0 .73.45 1.31.45 2.096 0 .774.06 1.29.59 1.538.68.317-1.33.838-2.09.838-.55 0-1.3-.56-2.25-.56-.93 0-.74 1.154-.74-.977 0-.755-1.69.29-2.1.419-1.04.326-.98 1.01-2.24.419a2.788 2.788 0 00-2.4 0c-.81.38-1.4.175-1.94-.838-.16-.301 1.61-1.817 1.94-1.817.7 0 2.02-1.043 2.55-1.538.6-.563 1.35-1.12 1.64-1.677.43-.793 1.2-1.168 1.2-2.096 0-.661.45-1.427.45-2.236v-2.097c0-.772.3-1.403.3-2.096 0-.44 1.05-1.68 1.34-1.817.37-.17 1.05-1.57 1.05-1.817 0-1.617.15-1.677-1.49-1.677-.95 0-1.77.698-2.7.698-.7 0-2.32 1.135-2.54 1.538-.48.893-1.55 1.172-2.24 1.817-.32.297-2.53.699-3 .699-.83 0-1.8.139-2.69.139-.74 0-1.89.394-2.54.699-1 .466-1.5.42-2.4 1.258-.56.526-.59 1.36-.59 2.096 0 .51.69 1.539.89 2.097.26.729.88 1.219 1.2 1.817.3.552.3 1.072.3 1.817 0 .484.6 1.063.6 1.537 0 .515.69 1.29.9 1.677.33.628.5 1.173 1.04 1.678.79.738.67 1.192-.15 1.96l-.3.27c-.56.53-1.64.61-2.39.84-.94.3-1.74.81-2.24-.14-.08-.15-.2-.28-.3-.42-.26-.36-.29-1.532-.9-1.532-.65 0 0-1.211 0-1.817 0-.733.15-1.432.15-2.097v-4.192c0-1.18 0-1.188-1.05-1.678-.63-.296-1.24-.677-2.09-.28-.78.362-1.75.514-2.25.979-.72.674-1.41-.691-1.49-.838-.34-.623-.45-1.553-.3-2.376" fill-rule="evenodd" fill="#97754b"/><path d="M54.911 168.113a17.994 17.212 0 11-35.988 0 17.994 17.212 0 1135.988 0z" fill="#7f4231"/><path d="M-85 51.5a3.5 3.5 0 11-7 0 3.5 3.5 0 117 0z" transform="matrix(.95677 0 0 1.3853 302.079 30.902)" opacity=".663" stroke="url(#grapes red-a)" stroke-miterlimit="17" stroke-width="2" fill="#eeeeec"/><path d="M-178 140a7 5 0 11-14 0 7 5 0 1114 0z" transform="matrix(.97308 -.87852 .89486 .99119 198.809 -199.376)" opacity=".599" stroke="url(#grapes red-b)" stroke-miterlimit="17" stroke-width="2" fill="#eeeeec"/><path d="M-186 94a5.5 3 0 11-11 0 5.5 3 0 1111 0z" transform="translate(325.899 -9.753)" opacity=".543" stroke="url(#grapes red-c)" stroke-miterlimit="17" stroke-width="2" fill="#eeeeec"/><path d="M108.568 174.91a7.667 6 0 11-15.333 0 7.667 6 0 1115.333 0z" opacity=".24" fill="#eeeeec"/><path d="M42.536 165.063a3.5 5 45.142 11-4.937-4.962 3.5 5 45.142 114.937 4.962zM21.569 171.914a3.5 4 0 11-7 0 3.5 4 0 117 0zM94.569 114.414a4.5 3.5 0 11-9 0 4.5 3.5 0 119 0zM70.569 80.914a4.5 5 0 11-9 0 4.5 5 0 119 0zM127.569 55.914a7 4 0 11-14 0 7 4 0 1114 0zM96.569 43.914a4.5 2 0 11-9 0 4.5 2 0 119 0zM208.569 135.914a4.5 5 0 11-9 0 4.5 5 0 119 0z" opacity=".427" fill="#eeeeec"/><path d="M175.569 215.914a5 5 0 11-10 0 5 5 0 1110 0z" opacity=".169" fill="#eeeeec"/><path d="M142.574 166.58a3.833 1.667 0 11-7.667 0 3.833 1.667 0 117.667 0zM194.214 171.13a5.077 2.49-35.77 11-3.288-3.764 5.077 2.49-35.77 113.288 3.764zM163.569 138.414a4.5 3.5 0 11-9 0 4.5 3.5 0 119 0zM72.565 174.913a4.5 3.333 0 11-9 0 4.5 3.333 0 119 0zM68.239 211.244a6 7 0 11-12 0 6 7 0 1112 0z" opacity=".427" fill="#eeeeec"/><path d="M119.24 228.307a8.333 5.167-47.108 11-11.344 12.21 8.333 5.167-47.108 1111.344-12.21z" opacity=".184" fill="#eeeeec"/><path d="M233.237 171.746a6 6.5 0 11-12 0 6 6.5 0 1112 0z" opacity=".427" fill="#eeeeec"/><path d="M203.237 191.746a6 6.5 0 11-12 0 6 6.5 0 1112 0z" opacity=".307" fill="#eeeeec"/><path d="M137.953 206.353a2 5.667 46.116 11-2.772-2.883 2 5.667 46.116 112.772 2.883zM45.07 122.368a3.167 7 50.863 11-3.998-4.912 3.167 7 50.863 113.997 4.912z" opacity=".427" fill="#eeeeec"/><path d="M167.569 187.914a5 5 0 11-10 0 5 5 0 1110 0z" opacity=".169" fill="#eeeeec"/></symbol><symbol id="sofa-tandem" viewBox="0 0 281.12 177.07"><path d="M18.886 59.605l218 49 49-29-207-48-60 28z" filter="url(#sofa-tandem-d)" fill="#babdb6" transform="translate(-14.366 63.948)"/><path d="M193.624 137.826h10.895l-2.906 26.477-5.88-1.75-2.109-24.727z" stroke="#2e3436" fill="#2e3436"/><path d="M199.874 139.576l8.895-.25-2.156 20.727-4.63 4.25-2.11-24.727zM36.375 104.576h9.145l-2.44 22.435-4.935-1.483-1.77-20.952z" stroke="#2e3436" fill="#2e3436"/><path d="M41.875 106.076h9.145l-3.94 18.685-3.435 2.267-1.77-20.952z" stroke="#2e3436" fill="#2e3436"/><path d="M34.919 106.479L5.996 97.735S3.642 47.96 9.359 43.924c8.072-5.045 73.991-14.798 73.991-14.798l-.673 29.596-47.758 47.757z" stroke="#000" stroke-width=".976" fill="#f8af08"/><path d="M94.292-29.583c-7.826 2.485-45.751 9.594-50.312 14.156-2.376 3.564-2.734 41.544-1.656 57.375.967.128 4.625.625 4.625.625l44.219-23s2.52-33.063 3.125-49.156z" fill="url(#sofa-tandem-e)" transform="translate(-14.366 63.948)"/><path d="M149.094 67.322l2.828-52.327 4.95-9.192-2.828-1.414c-14.142-1.06-57.367-2.553-64.347-3.89-12.832 7.94-12.06 38.739-13.435 60.459l72.832 6.364z" stroke="#000" fill="#f8af08"/><path transform="translate(-626.726 -327.042) scale(2.5172)" d="M346.38 133.86s-5 .75-5.5 8.875" opacity=".207" filter="url(#sofa-tandem-f)" stroke="#f2c766" fill="none"/><path d="M222.53 78.498L45.58 42.8l1.914-16.799 173.95 30.406 1.086 22.092z" stroke="#000" fill="url(#sofa-tandem-g)" transform="translate(-14.366 63.948)"/><path d="M154.604 6.657s-13.612 32.704-10.076 58.336c2.908 2.829 5.48 0 5.48 0l2.566-32.572.014-.176.156-1.974 1.86-23.614z" opacity=".628" fill="#f2780b"/><path d="M247.384 54.594c.364-13.556 6.887-35.13-3.89-45.255 0 0-41.365 0-48.436.707 0 0-21.567-7.778-30.406-6.364-19.8-6.01-16.263 67.882-16.263 67.882l95.459 9.192 7.071-26.163" stroke="#000" fill="#f8af08"/><path d="M82.854-9.708S49.974-2.283 44.67.899c-1.768 1.768 2.121 25.456 2.121 25.456l73.89 12.727 41.37-28.284L158.51.192s-59.752-11.314-75.66-9.9z" stroke="#000" fill="url(#sofa-tandem-h)" transform="translate(-14.366 63.948)"/><path d="M159.93 2.666s-32.88 7.425-38.184 10.607c-1.768 1.768 2.121 25.456 2.121 25.456l92.985 20.153 22.274-35.709-3.535-10.607s-59.751-11.314-75.66-9.9z" stroke="#000" fill="url(#sofa-tandem-i)" transform="translate(-14.366 63.948)"/><path d="M246.674 53.179s-30.406 9.192-36.062 14.849c-2.828 4.243-7.071 72.125-3.535 72.832 3.535.707 41.012 5.657 41.012 5.657s28.698-19.256 29.698-20.506c1-2 2.828-62.932 2.828-67.175-7.071-4.243-33.941-5.657-33.941-5.657z" stroke="#000" fill="#f8af08"/><path d="M77.197-23.85S46.791-18.9 43.256-13.597c-3.535 2.475 0 52.679 0 52.679" stroke="url(#sofa-tandem-j)" fill="none" transform="translate(-14.366 63.948)"/><path d="M206.724 93.661s-.354.177-3.89 2.298c-3.535 2.475-.353 26.517-.353 26.517M115.334 74.393s-6.364.884-10.076 2.298c-3.536 2.475.884 25.986.884 25.986" stroke="#000" fill="none"/><path d="M260.21-52.013c-7.645 1.278-23.852-8.283-14.9 47.241" stroke="url(#sofa-tandem-k)" fill="none" transform="translate(-14.366 63.948)"/><path d="M293.52-2.747c-7.826 2.485-25.983 10.509-30.545 15.07-2.376 3.564-5.734 52.044-4.656 67.875.967.128 4.625.625 4.625.625s28.012-18.336 29.012-19.086c1.5-2 .96-48.392 1.564-64.485z" fill="url(#sofa-tandem-l)" transform="translate(-14.366 63.948)"/><path d="M287.92-2.99s-22.274 9.546-25.809 14.849c-3.535 2.474-.354 67.175-.354 67.175" stroke="url(#sofa-tandem-m)" fill="none" transform="translate(-14.366 63.948)"/><path d="M106.6 101.496c-.534-1.57-1.687-11.555-1.848-16.011-.207-5.72.141-8.107 1.223-8.387.562-.146.62.272.656 4.82.034 4.166.936 13.256 1.76 17.738.166.901.042 1.194-.718 1.692-.707.463-.954.497-1.073.147zM202.83 119.566c-.971-5.681-1.176-19.79-.318-21.92.206-.51 1.204-1.437 2.22-2.062l1.847-1.136-.236 3.476c-.382 5.62-.916 15.72-.923 17.458-.005 1.207-.303 2.076-1.196 3.494l-1.19 1.886-.204-1.196z" fill="#f2780b"/><path transform="translate(1.52 -.354)" d="M229.57 56.183c-.12-.995-.452-3.56-.737-5.699-.897-6.747-1.282-15.61-.888-20.458.76-9.353 2.995-14.168 7.506-16.163 1.498-.662 2.495-.823 5.199-.838l3.345-.018.975 1.962c1.9 3.827 2.228 5.843 2.23 13.772.004 6.732-1.123 20.69-1.878 23.273-.207.71-1.28 1.173-7.886 3.4l-7.647 2.58-.219-1.81z" fill="url(#sofa-tandem-n)"/><path d="M29.77 65.803l17.5 3.75 40.25-14.5-9.5-18-1.5 17-7-1s-38.75 10.75-39.75 12.75z" opacity=".32" fill="#2e3436"/><path d="M44.136 1.605l2.5 19.5 14.5-15.5-17-4z" opacity=".301" fill="url(#sofa-tandem-o)" transform="translate(-14.366 63.948)"/></symbol><symbol id="Tunnel-Effect" viewBox="0 0 1466.458 1466.458"><style>.st21{fill:#7ac943}.st23{fill:#ed1e79}.st32{fill:#39b54a}.st41{fill:#534741}</style><filter id="filter14516" color-interpolation-filters="sRGB"><feFlood flood-color="#000" flood-opacity="1" id="feFlood14518" result="flood"/><feComposite id="feComposite14520" in="flood" in2="SourceGraphic" operator="out" result="composite1"/><feGaussianBlur id="feGaussianBlur14522" in="composite1" result="blur" stdDeviation="21.4"/><feOffset dx="7" dy="7" id="feOffset14524" result="offset"/><feComposite id="feComposite14526" in="offset" in2="SourceGraphic" operator="atop" result="composite2"/></filter><filter id="filter14504" color-interpolation-filters="sRGB"><feFlood flood-color="#000" flood-opacity="1" id="feFlood14506" result="flood"/><feComposite id="feComposite14508" in="flood" in2="SourceGraphic" operator="out" result="composite1"/><feGaussianBlur id="feGaussianBlur14510" in="composite1" result="blur" stdDeviation="21.4"/><feOffset dx="7" dy="7" id="feOffset14512" result="offset"/><feComposite id="feComposite14514" in="offset" in2="SourceGraphic" operator="atop" result="composite2"/></filter><filter id="filter14492" color-interpolation-filters="sRGB"><feFlood flood-color="#000" flood-opacity="1" id="feFlood14494" result="flood"/><feComposite id="feComposite14496" in="flood" in2="SourceGraphic" operator="out" result="composite1"/><feGaussianBlur id="feGaussianBlur14498" in="composite1" result="blur" stdDeviation="21.4"/><feOffset dx="7" dy="7" id="feOffset14500" result="offset"/><feComposite id="feComposite14502" in="offset" in2="SourceGraphic" operator="atop" result="composite2"/></filter><filter id="filter14480" color-interpolation-filters="sRGB"><feFlood flood-color="#000" flood-opacity="1" id="feFlood14482" result="flood"/><feComposite id="feComposite14484" in="flood" in2="SourceGraphic" operator="out" result="composite1"/><feGaussianBlur id="feGaussianBlur14486" in="composite1" result="blur" stdDeviation="21.4"/><feOffset dx="7" dy="7" id="feOffset14488" result="offset"/><feComposite id="feComposite14490" in="offset" in2="SourceGraphic" operator="atop" result="composite2"/></filter><filter id="filter14468" color-interpolation-filters="sRGB"><feFlood flood-color="#000" flood-opacity="1" id="feFlood14470" result="flood"/><feComposite id="feComposite14472" in="flood" in2="SourceGraphic" operator="out" result="composite1"/><feGaussianBlur id="feGaussianBlur14474" in="composite1" result="blur" stdDeviation="21.4"/><feOffset dx="7" dy="7" id="feOffset14476" result="offset"/><feComposite id="feComposite14478" in="offset" in2="SourceGraphic" operator="atop" result="composite2"/></filter><filter id="filter14456" color-interpolation-filters="sRGB"><feFlood flood-color="#000" flood-opacity="1" id="feFlood14458" result="flood"/><feComposite id="feComposite14460" in="flood" in2="SourceGraphic" operator="out" result="composite1"/><feGaussianBlur id="feGaussianBlur14462" in="composite1" result="blur" stdDeviation="21.4"/><feOffset dx="7" dy="7" id="feOffset14464" result="offset"/><feComposite id="feComposite14466" in="offset" in2="SourceGraphic" operator="atop" result="composite2"/></filter><filter id="filter14444" color-interpolation-filters="sRGB"><feFlood flood-color="#000" flood-opacity="1" id="feFlood14446" result="flood"/><feComposite id="feComposite14448" in="flood" in2="SourceGraphic" operator="out" result="composite1"/><feGaussianBlur id="feGaussianBlur14450" in="composite1" result="blur" stdDeviation="21.4"/><feOffset dx="7" dy="7" id="feOffset14452" result="offset"/><feComposite id="feComposite14454" in="offset" in2="SourceGraphic" operator="atop" result="composite2"/></filter><filter id="filter14432" color-interpolation-filters="sRGB"><feFlood flood-color="#000" flood-opacity="1" id="feFlood14434" result="flood"/><feComposite id="feComposite14436" in="flood" in2="SourceGraphic" operator="out" result="composite1"/><feGaussianBlur id="feGaussianBlur14438" in="composite1" result="blur" stdDeviation="21.4"/><feOffset dx="7" dy="7" id="feOffset14440" result="offset"/><feComposite id="feComposite14442" in="offset" in2="SourceGraphic" operator="atop" result="composite2"/></filter><filter id="filter14420" color-interpolation-filters="sRGB"><feFlood flood-color="#000" flood-opacity="1" id="feFlood14422" result="flood"/><feComposite id="feComposite14424" in="flood" in2="SourceGraphic" operator="out" result="composite1"/><feGaussianBlur id="feGaussianBlur14426" in="composite1" result="blur" stdDeviation="21.4"/><feOffset dx="7" dy="7" id="feOffset14428" result="offset"/><feComposite id="feComposite14430" in="offset" in2="SourceGraphic" operator="atop" result="composite2"/></filter><filter id="filter14408" color-interpolation-filters="sRGB"><feFlood flood-color="#000" flood-opacity="1" id="feFlood14410" result="flood"/><feComposite id="feComposite14412" in="flood" in2="SourceGraphic" operator="out" result="composite1"/><feGaussianBlur id="feGaussianBlur14414" in="composite1" result="blur" stdDeviation="21.4"/><feOffset dx="7" dy="7" id="feOffset14416" result="offset"/><feComposite id="feComposite14418" in="offset" in2="SourceGraphic" operator="atop" result="composite2"/></filter><filter id="filter14396" color-interpolation-filters="sRGB"><feFlood flood-color="#000" flood-opacity="1" id="feFlood14398" result="flood"/><feComposite id="feComposite14400" in="flood" in2="SourceGraphic" operator="out" result="composite1"/><feGaussianBlur id="feGaussianBlur14402" in="composite1" result="blur" stdDeviation="21.4"/><feOffset dx="7" dy="7" id="feOffset14404" result="offset"/><feComposite id="feComposite14406" in="offset" in2="SourceGraphic" operator="atop" result="composite2"/></filter><filter id="filter14384" color-interpolation-filters="sRGB"><feFlood flood-color="#000" flood-opacity="1" id="feFlood14386" result="flood"/><feComposite id="feComposite14388" in="flood" in2="SourceGraphic" operator="out" result="composite1"/><feGaussianBlur id="feGaussianBlur14390" in="composite1" result="blur" stdDeviation="21.4"/><feOffset dx="7" dy="7" id="feOffset14392" result="offset"/><feComposite id="feComposite14394" in="offset" in2="SourceGraphic" operator="atop" result="composite2"/></filter><filter id="filter14372" color-interpolation-filters="sRGB"><feFlood flood-color="#000" flood-opacity="1" id="feFlood14374" result="flood"/><feComposite id="feComposite14376" in="flood" in2="SourceGraphic" operator="out" result="composite1"/><feGaussianBlur id="feGaussianBlur14378" in="composite1" result="blur" stdDeviation="21.4"/><feOffset dx="7" dy="7" id="feOffset14380" result="offset"/><feComposite id="feComposite14382" in="offset" in2="SourceGraphic" operator="atop" result="composite2"/></filter><filter id="filter14360" color-interpolation-filters="sRGB"><feFlood flood-color="#000" flood-opacity="1" id="feFlood14362" result="flood"/><feComposite id="feComposite14364" in="flood" in2="SourceGraphic" operator="out" result="composite1"/><feGaussianBlur id="feGaussianBlur14366" in="composite1" result="blur" stdDeviation="21.4"/><feOffset dx="7" dy="7" id="feOffset14368" result="offset"/><feComposite id="feComposite14370" in="offset" in2="SourceGraphic" operator="atop" result="composite2"/></filter><filter id="filter14348" color-interpolation-filters="sRGB"><feFlood flood-color="#000" flood-opacity="1" id="feFlood14350" result="flood"/><feComposite id="feComposite14352" in="flood" in2="SourceGraphic" operator="out" result="composite1"/><feGaussianBlur id="feGaussianBlur14354" in="composite1" result="blur" stdDeviation="21.4"/><feOffset dx="7" dy="7" id="feOffset14356" result="offset"/><feComposite id="feComposite14358" in="offset" in2="SourceGraphic" operator="atop" result="composite2"/></filter><filter id="filter14336" color-interpolation-filters="sRGB"><feFlood flood-color="#000" flood-opacity="1" id="feFlood14338" result="flood"/><feComposite id="feComposite14340" in="flood" in2="SourceGraphic" operator="out" result="composite1"/><feGaussianBlur id="feGaussianBlur14342" in="composite1" result="blur" stdDeviation="21.4"/><feOffset dx="7" dy="7" id="feOffset14344" result="offset"/><feComposite id="feComposite14346" in="offset" in2="SourceGraphic" operator="atop" result="composite2"/></filter><filter id="filter14324" color-interpolation-filters="sRGB"><feFlood flood-color="#000" flood-opacity="1" id="feFlood14326" result="flood"/><feComposite id="feComposite14328" in="flood" in2="SourceGraphic" operator="out" result="composite1"/><feGaussianBlur id="feGaussianBlur14330" in="composite1" result="blur" stdDeviation="21.4"/><feOffset dx="7" dy="7" id="feOffset14332" result="offset"/><feComposite id="feComposite14334" in="offset" in2="SourceGraphic" operator="atop" result="composite2"/></filter><filter id="filter14312" color-interpolation-filters="sRGB"><feFlood flood-color="#000" flood-opacity="1" id="feFlood14314" result="flood"/><feComposite id="feComposite14316" in="flood" in2="SourceGraphic" operator="out" result="composite1"/><feGaussianBlur id="feGaussianBlur14318" in="composite1" result="blur" stdDeviation="21.4"/><feOffset dx="7" dy="7" id="feOffset14320" result="offset"/><feComposite id="feComposite14322" in="offset" in2="SourceGraphic" operator="atop" result="composite2"/></filter><filter id="filter14300" color-interpolation-filters="sRGB"><feFlood flood-color="#000" flood-opacity="1" id="feFlood14302" result="flood"/><feComposite id="feComposite14304" in="flood" in2="SourceGraphic" operator="out" result="composite1"/><feGaussianBlur id="feGaussianBlur14306" in="composite1" result="blur" stdDeviation="21.4"/><feOffset dx="7" dy="7" id="feOffset14308" result="offset"/><feComposite id="feComposite14310" in="offset" in2="SourceGraphic" operator="atop" result="composite2"/></filter><filter id="filter14288" color-interpolation-filters="sRGB"><feFlood flood-color="#000" flood-opacity="1" id="feFlood14290" result="flood"/><feComposite id="feComposite14292" in="flood" in2="SourceGraphic" operator="out" result="composite1"/><feGaussianBlur id="feGaussianBlur14294" in="composite1" result="blur" stdDeviation="21.4"/><feOffset dx="7" dy="7" id="feOffset14296" result="offset"/><feComposite id="feComposite14298" in="offset" in2="SourceGraphic" operator="atop" result="composite2"/></filter><filter id="filter14276" color-interpolation-filters="sRGB"><feFlood flood-color="#000" flood-opacity="1" id="feFlood14278" result="flood"/><feComposite id="feComposite14280" in="flood" in2="SourceGraphic" operator="out" result="composite1"/><feGaussianBlur id="feGaussianBlur14282" in="composite1" result="blur" stdDeviation="21.4"/><feOffset dx="7" dy="7" id="feOffset14284" result="offset"/><feComposite id="feComposite14286" in="offset" in2="SourceGraphic" operator="atop" result="composite2"/></filter><filter id="filter14264" color-interpolation-filters="sRGB"><feFlood flood-color="#000" flood-opacity="1" id="feFlood14266" result="flood"/><feComposite id="feComposite14268" in="flood" in2="SourceGraphic" operator="out" result="composite1"/><feGaussianBlur id="feGaussianBlur14270" in="composite1" result="blur" stdDeviation="21.4"/><feOffset dx="7" dy="7" id="feOffset14272" result="offset"/><feComposite id="feComposite14274" in="offset" in2="SourceGraphic" operator="atop" result="composite2"/></filter><filter id="filter14252" color-interpolation-filters="sRGB"><feFlood flood-color="#000" flood-opacity="1" id="feFlood14254" result="flood"/><feComposite id="feComposite14256" in="flood" in2="SourceGraphic" operator="out" result="composite1"/><feGaussianBlur id="feGaussianBlur14258" in="composite1" result="blur" stdDeviation="21.4"/><feOffset dx="7" dy="7" id="feOffset14260" result="offset"/><feComposite id="feComposite14262" in="offset" in2="SourceGraphic" operator="atop" result="composite2"/></filter><filter id="filter14240" color-interpolation-filters="sRGB"><feFlood flood-color="#000" flood-opacity="1" id="feFlood14242" result="flood"/><feComposite id="feComposite14244" in="flood" in2="SourceGraphic" operator="out" result="composite1"/><feGaussianBlur id="feGaussianBlur14246" in="composite1" result="blur" stdDeviation="21.4"/><feOffset dx="7" dy="7" id="feOffset14248" result="offset"/><feComposite id="feComposite14250" in="offset" in2="SourceGraphic" operator="atop" result="composite2"/></filter><filter id="filter14228" color-interpolation-filters="sRGB"><feFlood flood-color="#000" flood-opacity="1" id="feFlood14230" result="flood"/><feComposite id="feComposite14232" in="flood" in2="SourceGraphic" operator="out" result="composite1"/><feGaussianBlur id="feGaussianBlur14234" in="composite1" result="blur" stdDeviation="21.4"/><feOffset dx="7" dy="7" id="feOffset14236" result="offset"/><feComposite id="feComposite14238" in="offset" in2="SourceGraphic" operator="atop" result="composite2"/></filter><g id="g14528"><g id="rect7" filter="url(#filter14516)"><path fill="#f15a24" d="M0 0h1466.458v1466.458H0z"/></g><g id="rect9" filter="url(#filter14504)"><path fill="#ff0" d="M122.205 122.205h1222.048v1222.048H122.205z"/></g><g id="rect11" filter="url(#filter14492)"><path fill="#754c24" d="M224.042 224.042h1018.374v1018.374H224.042z"/></g><g id="rect13" filter="url(#filter14480)"><path fill="#1b1464" d="M308.907 308.907h848.645v848.645H308.907z"/></g><g id="rect15" filter="url(#filter14468)"><path fill="#00f" d="M379.627 379.627h707.204v707.204H379.627z"/></g><g id="rect17" filter="url(#filter14456)"><path fill="#c1272d" d="M438.561 438.561h589.337v589.337H438.561z"/></g><g id="rect19" filter="url(#filter14444)"><path fill="#a67c52" d="M487.672 487.672h491.114v491.114H487.672z"/></g><g id="rect21" filter="url(#filter14432)"><path fill="#fbb03b" d="M528.598 528.598H937.86V937.86H528.598z"/></g><g id="rect23" filter="url(#filter14420)"><path fill="#bdccd4" d="M562.703 562.703h341.051v341.051H562.703z"/></g><g id="rect25" filter="url(#filter14408)"><path fill="#f0f" d="M591.124 591.124h284.209v284.209H591.124z"/></g><g id="rect27" filter="url(#filter14396)"><path class="st21" d="M614.808 614.808h236.841v236.841H614.808z"/></g><g id="rect29" filter="url(#filter14384)"><path class="st23" d="M634.545 634.545h197.368v197.368H634.545z"/></g><g id="rect31" filter="url(#filter14372)"><path fill="#9e005d" d="M650.993 650.993h164.473v164.473H650.993z"/></g><g id="rect33" filter="url(#filter14360)"><path fill="#29abe2" d="M664.699 664.699H801.76V801.76H664.699z"/></g><g id="rect35" filter="url(#filter14348)"><path class="st23" d="M676.12 676.12h114.217v114.217H676.12z"/></g><g id="rect37" filter="url(#filter14336)"><path fill="#736357" d="M685.638 685.638h95.181v95.181h-95.181z"/></g><g id="rect39" filter="url(#filter14324)"><path class="st32" d="M693.57 693.57h79.318v79.318H693.57z"/></g><g id="rect41" filter="url(#filter14312)"><path fill="#998675" d="M700.18 700.18h66.098v66.098H700.18z"/></g><g id="rect43" filter="url(#filter14300)"><path fill="#0f0" d="M705.688 705.688h55.082v55.082h-55.082z"/></g><g id="rect45" filter="url(#filter14288)"><path fill="#d4145a" d="M710.278 710.278h45.901v45.901h-45.901z"/></g><g id="rect47" filter="url(#filter14276)"><path class="st21" d="M714.103 714.103h38.251v38.251h-38.251z"/></g><g id="rect49" filter="url(#filter14264)"><path class="st41" d="M717.291 717.291h31.876v31.876h-31.876z"/></g><g id="rect51" filter="url(#filter14252)"><path fill="#c7b299" d="M719.947 719.947h26.563v26.563h-26.563z"/></g><g id="rect53" filter="url(#filter14240)"><path class="st41" d="M722.161 722.161h22.136v22.136h-22.136z"/></g><g id="rect55" filter="url(#filter14228)"><path class="st32" d="M724.006 724.006h18.447v18.447h-18.447z"/></g></g></symbol></svg>